<?xml version="1.0" encoding="UTF-8" standalone="no"?>
<!-- Created with Inkscape (http://www.inkscape.org/) -->
<svg
   xmlns:dc="http://purl.org/dc/elements/1.1/"
   xmlns:cc="http://creativecommons.org/ns#"
   xmlns:rdf="http://www.w3.org/1999/02/22-rdf-syntax-ns#"
   xmlns:svg="http://www.w3.org/2000/svg"
   xmlns="http://www.w3.org/2000/svg"
   xmlns:sodipodi="http://sodipodi.sourceforge.net/DTD/sodipodi-0.dtd"
   xmlns:inkscape="http://www.inkscape.org/namespaces/inkscape"
   id="svg2403"
   sodipodi:version="0.32"
   inkscape:version="0.46"
   width="626.38483"
   height="433.82858"
   xml:space="preserve"
   sodipodi:docname="acceptance_vs_mh.svg"
   inkscape:output_extension="org.inkscape.output.svg.inkscape"
   version="1.0"><metadata
     id="metadata2408"><rdf:RDF><cc:Work
         rdf:about=""><dc:format>image/svg+xml</dc:format><dc:type
           rdf:resource="http://purl.org/dc/dcmitype/StillImage" /></cc:Work></rdf:RDF></metadata><defs
     id="defs2406"><inkscape:perspective
       sodipodi:type="inkscape:persp3d"
       inkscape:vp_x="0 : 526.18109 : 1"
       inkscape:vp_y="0 : 1000 : 0"
       inkscape:vp_z="744.09448 : 526.18109 : 1"
       inkscape:persp3d-origin="372.04724 : 350.78739 : 1"
       id="perspective2410" /></defs><sodipodi:namedview
     inkscape:window-height="846"
     inkscape:window-width="1434"
     inkscape:pageshadow="2"
     inkscape:pageopacity="0.0"
     guidetolerance="10.0"
     gridtolerance="10.0"
     objecttolerance="10.0"
     borderopacity="1.0"
     bordercolor="#666666"
     pagecolor="#ffffff"
     id="base"
     showgrid="false"
     inkscape:zoom="1.1293755"
     inkscape:cx="353.53724"
     inkscape:cy="203.21498"
     inkscape:window-x="0"
     inkscape:window-y="0"
     inkscape:current-layer="g2412" /><g
     id="g2412"
     inkscape:groupmode="layer"
     inkscape:label="acceptance_vs_mh"
     transform="matrix(1.25,0,0,-1.25,-11.896425,431.44423)"><path
       id="path2416"
       style="fill:#ffffff;fill-opacity:1;fill-rule:evenodd;stroke:none"
       d="M 56.75,37.75 L 510.25,37.75 L 510.25,340.25 L 56.75,340.25 L 56.75,37.75 z" /><path
       id="path2418"
       style="fill:none;stroke:#000000;stroke-width:0.75;stroke-linecap:butt;stroke-linejoin:miter;stroke-miterlimit:10;stroke-dasharray:none;stroke-opacity:1"
       d="M 56.75,37.75 L 510.25,37.75 L 510.25,340.25 L 56.75,340.25 L 56.75,37.75 z" /><path
       id="path2420"
       style="fill:none;stroke:#000000;stroke-width:0.75;stroke-linecap:butt;stroke-linejoin:miter;stroke-miterlimit:10;stroke-dasharray:none;stroke-opacity:1"
       d="M 56.75,37.75 L 510.25,37.75" /><path
       id="path2436"
       style="fill:none;stroke:#000000;stroke-width:0.75;stroke-linecap:butt;stroke-linejoin:miter;stroke-miterlimit:10;stroke-dasharray:none;stroke-opacity:1"
       d="M 113.5,46.75 L 113.5,37.75" /><path
       id="path2438"
       style="fill:none;stroke:#000000;stroke-width:0.75;stroke-linecap:butt;stroke-linejoin:miter;stroke-miterlimit:10;stroke-dasharray:none;stroke-opacity:1"
       d="M 124.75,42.25 L 124.75,37.75" /><path
       id="path2440"
       style="fill:none;stroke:#000000;stroke-width:0.75;stroke-linecap:butt;stroke-linejoin:miter;stroke-miterlimit:10;stroke-dasharray:none;stroke-opacity:1"
       d="M 136,42.25 L 136,37.75" /><path
       id="path2442"
       style="fill:none;stroke:#000000;stroke-width:0.75;stroke-linecap:butt;stroke-linejoin:miter;stroke-miterlimit:10;stroke-dasharray:none;stroke-opacity:1"
       d="M 147.5,42.25 L 147.5,37.75" /><path
       id="path2444"
       style="fill:none;stroke:#000000;stroke-width:0.75;stroke-linecap:butt;stroke-linejoin:miter;stroke-miterlimit:10;stroke-dasharray:none;stroke-opacity:1"
       d="M 158.75,42.25 L 158.75,37.75" /><path
       id="path2446"
       style="fill:none;stroke:#000000;stroke-width:0.75;stroke-linecap:butt;stroke-linejoin:miter;stroke-miterlimit:10;stroke-dasharray:none;stroke-opacity:1"
       d="M 170,42.25 L 170,37.75" /><path
       id="path2448"
       style="fill:none;stroke:#000000;stroke-width:0.75;stroke-linecap:butt;stroke-linejoin:miter;stroke-miterlimit:10;stroke-dasharray:none;stroke-opacity:1"
       d="M 181.5,42.25 L 181.5,37.75" /><path
       id="path2450"
       style="fill:none;stroke:#000000;stroke-width:0.75;stroke-linecap:butt;stroke-linejoin:miter;stroke-miterlimit:10;stroke-dasharray:none;stroke-opacity:1"
       d="M 192.75,42.25 L 192.75,37.75" /><path
       id="path2452"
       style="fill:none;stroke:#000000;stroke-width:0.75;stroke-linecap:butt;stroke-linejoin:miter;stroke-miterlimit:10;stroke-dasharray:none;stroke-opacity:1"
       d="M 204,42.25 L 204,37.75" /><path
       id="path2454"
       style="fill:none;stroke:#000000;stroke-width:0.75;stroke-linecap:butt;stroke-linejoin:miter;stroke-miterlimit:10;stroke-dasharray:none;stroke-opacity:1"
       d="M 215.5,42.25 L 215.5,37.75" /><path
       id="path2456"
       style="fill:none;stroke:#000000;stroke-width:0.75;stroke-linecap:butt;stroke-linejoin:miter;stroke-miterlimit:10;stroke-dasharray:none;stroke-opacity:1"
       d="M 226.75,46.75 L 226.75,37.75" /><path
       id="path2458"
       style="fill:none;stroke:#000000;stroke-width:0.75;stroke-linecap:butt;stroke-linejoin:miter;stroke-miterlimit:10;stroke-dasharray:none;stroke-opacity:1"
       d="M 238,42.25 L 238,37.75" /><path
       id="path2460"
       style="fill:none;stroke:#000000;stroke-width:0.75;stroke-linecap:butt;stroke-linejoin:miter;stroke-miterlimit:10;stroke-dasharray:none;stroke-opacity:1"
       d="M 249.5,42.25 L 249.5,37.75" /><path
       id="path2462"
       style="fill:none;stroke:#000000;stroke-width:0.75;stroke-linecap:butt;stroke-linejoin:miter;stroke-miterlimit:10;stroke-dasharray:none;stroke-opacity:1"
       d="M 260.75,42.25 L 260.75,37.75" /><path
       id="path2464"
       style="fill:none;stroke:#000000;stroke-width:0.75;stroke-linecap:butt;stroke-linejoin:miter;stroke-miterlimit:10;stroke-dasharray:none;stroke-opacity:1"
       d="M 272.25,42.25 L 272.25,37.75" /><path
       id="path2466"
       style="fill:none;stroke:#000000;stroke-width:0.75;stroke-linecap:butt;stroke-linejoin:miter;stroke-miterlimit:10;stroke-dasharray:none;stroke-opacity:1"
       d="M 283.5,42.25 L 283.5,37.75" /><path
       id="path2468"
       style="fill:none;stroke:#000000;stroke-width:0.75;stroke-linecap:butt;stroke-linejoin:miter;stroke-miterlimit:10;stroke-dasharray:none;stroke-opacity:1"
       d="M 294.75,42.25 L 294.75,37.75" /><path
       id="path2470"
       style="fill:none;stroke:#000000;stroke-width:0.75;stroke-linecap:butt;stroke-linejoin:miter;stroke-miterlimit:10;stroke-dasharray:none;stroke-opacity:1"
       d="M 306.25,42.25 L 306.25,37.75" /><path
       id="path2472"
       style="fill:none;stroke:#000000;stroke-width:0.75;stroke-linecap:butt;stroke-linejoin:miter;stroke-miterlimit:10;stroke-dasharray:none;stroke-opacity:1"
       d="M 317.5,42.25 L 317.5,37.75" /><path
       id="path2474"
       style="fill:none;stroke:#000000;stroke-width:0.75;stroke-linecap:butt;stroke-linejoin:miter;stroke-miterlimit:10;stroke-dasharray:none;stroke-opacity:1"
       d="M 328.75,42.25 L 328.75,37.75" /><path
       id="path2476"
       style="fill:none;stroke:#000000;stroke-width:0.75;stroke-linecap:butt;stroke-linejoin:miter;stroke-miterlimit:10;stroke-dasharray:none;stroke-opacity:1"
       d="M 340.25,46.75 L 340.25,37.75" /><path
       id="path2478"
       style="fill:none;stroke:#000000;stroke-width:0.75;stroke-linecap:butt;stroke-linejoin:miter;stroke-miterlimit:10;stroke-dasharray:none;stroke-opacity:1"
       d="M 351.5,42.25 L 351.5,37.75" /><path
       id="path2480"
       style="fill:none;stroke:#000000;stroke-width:0.75;stroke-linecap:butt;stroke-linejoin:miter;stroke-miterlimit:10;stroke-dasharray:none;stroke-opacity:1"
       d="M 362.75,42.25 L 362.75,37.75" /><path
       id="path2482"
       style="fill:none;stroke:#000000;stroke-width:0.75;stroke-linecap:butt;stroke-linejoin:miter;stroke-miterlimit:10;stroke-dasharray:none;stroke-opacity:1"
       d="M 374.25,42.25 L 374.25,37.75" /><path
       id="path2484"
       style="fill:none;stroke:#000000;stroke-width:0.75;stroke-linecap:butt;stroke-linejoin:miter;stroke-miterlimit:10;stroke-dasharray:none;stroke-opacity:1"
       d="M 385.5,42.25 L 385.5,37.75" /><path
       id="path2486"
       style="fill:none;stroke:#000000;stroke-width:0.75;stroke-linecap:butt;stroke-linejoin:miter;stroke-miterlimit:10;stroke-dasharray:none;stroke-opacity:1"
       d="M 396.75,42.25 L 396.75,37.75" /><path
       id="path2488"
       style="fill:none;stroke:#000000;stroke-width:0.75;stroke-linecap:butt;stroke-linejoin:miter;stroke-miterlimit:10;stroke-dasharray:none;stroke-opacity:1"
       d="M 408.25,42.25 L 408.25,37.75" /><path
       id="path2490"
       style="fill:none;stroke:#000000;stroke-width:0.75;stroke-linecap:butt;stroke-linejoin:miter;stroke-miterlimit:10;stroke-dasharray:none;stroke-opacity:1"
       d="M 419.5,42.25 L 419.5,37.75" /><path
       id="path2492"
       style="fill:none;stroke:#000000;stroke-width:0.75;stroke-linecap:butt;stroke-linejoin:miter;stroke-miterlimit:10;stroke-dasharray:none;stroke-opacity:1"
       d="M 430.75,42.25 L 430.75,37.75" /><path
       id="path2494"
       style="fill:none;stroke:#000000;stroke-width:0.75;stroke-linecap:butt;stroke-linejoin:miter;stroke-miterlimit:10;stroke-dasharray:none;stroke-opacity:1"
       d="M 442.25,42.25 L 442.25,37.75" /><path
       id="path2496"
       style="fill:none;stroke:#000000;stroke-width:0.75;stroke-linecap:butt;stroke-linejoin:miter;stroke-miterlimit:10;stroke-dasharray:none;stroke-opacity:1"
       d="M 453.5,46.75 L 453.5,37.75" /><path
       id="path2498"
       style="fill:none;stroke:#000000;stroke-width:0.75;stroke-linecap:butt;stroke-linejoin:miter;stroke-miterlimit:10;stroke-dasharray:none;stroke-opacity:1"
       d="M 113.5,46.75 L 113.5,37.75" /><path
       id="path2500"
       style="fill:none;stroke:#000000;stroke-width:0.75;stroke-linecap:butt;stroke-linejoin:miter;stroke-miterlimit:10;stroke-dasharray:none;stroke-opacity:1"
       d="M 102,42.25 L 102,37.75" /><path
       id="path2502"
       style="fill:none;stroke:#000000;stroke-width:0.75;stroke-linecap:butt;stroke-linejoin:miter;stroke-miterlimit:10;stroke-dasharray:none;stroke-opacity:1"
       d="M 90.75,42.25 L 90.75,37.75" /><path
       id="path2504"
       style="fill:none;stroke:#000000;stroke-width:0.75;stroke-linecap:butt;stroke-linejoin:miter;stroke-miterlimit:10;stroke-dasharray:none;stroke-opacity:1"
       d="M 79.25,42.25 L 79.25,37.75" /><path
       id="path2506"
       style="fill:none;stroke:#000000;stroke-width:0.75;stroke-linecap:butt;stroke-linejoin:miter;stroke-miterlimit:10;stroke-dasharray:none;stroke-opacity:1"
       d="M 68,42.25 L 68,37.75" /><path
       id="path2508"
       style="fill:none;stroke:#000000;stroke-width:0.75;stroke-linecap:butt;stroke-linejoin:miter;stroke-miterlimit:10;stroke-dasharray:none;stroke-opacity:1"
       d="M 56.75,42.25 L 56.75,37.75" /><path
       id="path2510"
       style="fill:none;stroke:#000000;stroke-width:0.75;stroke-linecap:butt;stroke-linejoin:miter;stroke-miterlimit:10;stroke-dasharray:none;stroke-opacity:1"
       d="M 453.5,46.75 L 453.5,37.75" /><path
       id="path2512"
       style="fill:none;stroke:#000000;stroke-width:0.75;stroke-linecap:butt;stroke-linejoin:miter;stroke-miterlimit:10;stroke-dasharray:none;stroke-opacity:1"
       d="M 465,42.25 L 465,37.75" /><path
       id="path2514"
       style="fill:none;stroke:#000000;stroke-width:0.75;stroke-linecap:butt;stroke-linejoin:miter;stroke-miterlimit:10;stroke-dasharray:none;stroke-opacity:1"
       d="M 476.25,42.25 L 476.25,37.75" /><path
       id="path2516"
       style="fill:none;stroke:#000000;stroke-width:0.75;stroke-linecap:butt;stroke-linejoin:miter;stroke-miterlimit:10;stroke-dasharray:none;stroke-opacity:1"
       d="M 487.5,42.25 L 487.5,37.75" /><path
       id="path2518"
       style="fill:none;stroke:#000000;stroke-width:0.75;stroke-linecap:butt;stroke-linejoin:miter;stroke-miterlimit:10;stroke-dasharray:none;stroke-opacity:1"
       d="M 499,42.25 L 499,37.75" /><path
       id="path2520"
       style="fill:none;stroke:#000000;stroke-width:0.75;stroke-linecap:butt;stroke-linejoin:miter;stroke-miterlimit:10;stroke-dasharray:none;stroke-opacity:1"
       d="M 510.25,42.25 L 510.25,37.75" /><g
       id="g2522"><text
         id="text2524"
         transform="matrix(1,0,0,-1,105.75,24)"><tspan
           id="tspan2526"
           sodipodi:role="line"
           y="0"
           x="0 7.705215 113.50017 121.20538 223.00041 230.70563 238.41084 336.50058 344.20581 351.91101"
           style="font-size:13.85830021px;font-variant:normal;font-weight:bold;writing-mode:lr-tb;fill:#000000;fill-opacity:1;fill-rule:nonzero;stroke:none;font-family:Helvetica;-inkscape-font-specification:Helvetica-Bold">6080100120</tspan></text>
</g><path
       id="path2528"
       style="fill:none;stroke:#000000;stroke-width:0.75;stroke-linecap:butt;stroke-linejoin:miter;stroke-miterlimit:10;stroke-dasharray:none;stroke-opacity:1"
       d="M 56.75,37.75 L 56.75,340.25" /><g
       id="g2530"
       transform="matrix(1.1004847,0,0,1.1004847,-5.0762979,-23.75351)"><text
         id="text2532"
         transform="matrix(0,1,1,0,24.5,150.5)"><tspan
           id="tspan2534"
           sodipodi:role="line"
           y="0"
           x="0 10.005692 17.710907 25.416122 33.121338 41.588757 46.203571 53.908787 62.376209 70.081421"
           style="font-size:13.85830021px;font-variant:normal;font-weight:bold;writing-mode:lr-tb;fill:#000000;fill-opacity:1;fill-rule:nonzero;stroke:none;font-family:Helvetica;-inkscape-font-specification:Helvetica-Bold">Acceptance</tspan></text>
</g><path
       id="path2536"
       style="fill:none;stroke:#000000;stroke-width:0.75;stroke-linecap:butt;stroke-linejoin:miter;stroke-miterlimit:10;stroke-dasharray:none;stroke-opacity:1"
       d="M 70.25,37.75 L 56.75,37.75" /><path
       id="path2538"
       style="fill:none;stroke:#000000;stroke-width:0.75;stroke-linecap:butt;stroke-linejoin:miter;stroke-miterlimit:10;stroke-dasharray:none;stroke-opacity:1"
       d="M 63.5,43.75 L 56.75,43.75" /><path
       id="path2540"
       style="fill:none;stroke:#000000;stroke-width:0.75;stroke-linecap:butt;stroke-linejoin:miter;stroke-miterlimit:10;stroke-dasharray:none;stroke-opacity:1"
       d="M 63.5,50 L 56.75,50" /><path
       id="path2542"
       style="fill:none;stroke:#000000;stroke-width:0.75;stroke-linecap:butt;stroke-linejoin:miter;stroke-miterlimit:10;stroke-dasharray:none;stroke-opacity:1"
       d="M 63.5,56 L 56.75,56" /><path
       id="path2544"
       style="fill:none;stroke:#000000;stroke-width:0.75;stroke-linecap:butt;stroke-linejoin:miter;stroke-miterlimit:10;stroke-dasharray:none;stroke-opacity:1"
       d="M 63.5,62 L 56.75,62" /><path
       id="path2546"
       style="fill:none;stroke:#000000;stroke-width:0.75;stroke-linecap:butt;stroke-linejoin:miter;stroke-miterlimit:10;stroke-dasharray:none;stroke-opacity:1"
       d="M 63.5,68 L 56.75,68" /><path
       id="path2548"
       style="fill:none;stroke:#000000;stroke-width:0.75;stroke-linecap:butt;stroke-linejoin:miter;stroke-miterlimit:10;stroke-dasharray:none;stroke-opacity:1"
       d="M 63.5,74 L 56.75,74" /><path
       id="path2550"
       style="fill:none;stroke:#000000;stroke-width:0.75;stroke-linecap:butt;stroke-linejoin:miter;stroke-miterlimit:10;stroke-dasharray:none;stroke-opacity:1"
       d="M 63.5,80.25 L 56.75,80.25" /><path
       id="path2552"
       style="fill:none;stroke:#000000;stroke-width:0.75;stroke-linecap:butt;stroke-linejoin:miter;stroke-miterlimit:10;stroke-dasharray:none;stroke-opacity:1"
       d="M 63.5,86.25 L 56.75,86.25" /><path
       id="path2554"
       style="fill:none;stroke:#000000;stroke-width:0.75;stroke-linecap:butt;stroke-linejoin:miter;stroke-miterlimit:10;stroke-dasharray:none;stroke-opacity:1"
       d="M 63.5,92.25 L 56.75,92.25" /><path
       id="path2556"
       style="fill:none;stroke:#000000;stroke-width:0.75;stroke-linecap:butt;stroke-linejoin:miter;stroke-miterlimit:10;stroke-dasharray:none;stroke-opacity:1"
       d="M 70.25,98.25 L 56.75,98.25" /><path
       id="path2558"
       style="fill:none;stroke:#000000;stroke-width:0.75;stroke-linecap:butt;stroke-linejoin:miter;stroke-miterlimit:10;stroke-dasharray:none;stroke-opacity:1"
       d="M 63.5,104.25 L 56.75,104.25" /><path
       id="path2560"
       style="fill:none;stroke:#000000;stroke-width:0.75;stroke-linecap:butt;stroke-linejoin:miter;stroke-miterlimit:10;stroke-dasharray:none;stroke-opacity:1"
       d="M 63.5,110.25 L 56.75,110.25" /><path
       id="path2562"
       style="fill:none;stroke:#000000;stroke-width:0.75;stroke-linecap:butt;stroke-linejoin:miter;stroke-miterlimit:10;stroke-dasharray:none;stroke-opacity:1"
       d="M 63.5,116.5 L 56.75,116.5" /><path
       id="path2564"
       style="fill:none;stroke:#000000;stroke-width:0.75;stroke-linecap:butt;stroke-linejoin:miter;stroke-miterlimit:10;stroke-dasharray:none;stroke-opacity:1"
       d="M 63.5,122.5 L 56.75,122.5" /><path
       id="path2566"
       style="fill:none;stroke:#000000;stroke-width:0.75;stroke-linecap:butt;stroke-linejoin:miter;stroke-miterlimit:10;stroke-dasharray:none;stroke-opacity:1"
       d="M 63.5,128.5 L 56.75,128.5" /><path
       id="path2568"
       style="fill:none;stroke:#000000;stroke-width:0.75;stroke-linecap:butt;stroke-linejoin:miter;stroke-miterlimit:10;stroke-dasharray:none;stroke-opacity:1"
       d="M 63.5,134.5 L 56.75,134.5" /><path
       id="path2570"
       style="fill:none;stroke:#000000;stroke-width:0.75;stroke-linecap:butt;stroke-linejoin:miter;stroke-miterlimit:10;stroke-dasharray:none;stroke-opacity:1"
       d="M 63.5,140.5 L 56.75,140.5" /><path
       id="path2572"
       style="fill:none;stroke:#000000;stroke-width:0.75;stroke-linecap:butt;stroke-linejoin:miter;stroke-miterlimit:10;stroke-dasharray:none;stroke-opacity:1"
       d="M 63.5,146.75 L 56.75,146.75" /><path
       id="path2574"
       style="fill:none;stroke:#000000;stroke-width:0.75;stroke-linecap:butt;stroke-linejoin:miter;stroke-miterlimit:10;stroke-dasharray:none;stroke-opacity:1"
       d="M 63.5,152.75 L 56.75,152.75" /><path
       id="path2576"
       style="fill:none;stroke:#000000;stroke-width:0.75;stroke-linecap:butt;stroke-linejoin:miter;stroke-miterlimit:10;stroke-dasharray:none;stroke-opacity:1"
       d="M 70.25,158.75 L 56.75,158.75" /><path
       id="path2578"
       style="fill:none;stroke:#000000;stroke-width:0.75;stroke-linecap:butt;stroke-linejoin:miter;stroke-miterlimit:10;stroke-dasharray:none;stroke-opacity:1"
       d="M 63.5,164.75 L 56.75,164.75" /><path
       id="path2580"
       style="fill:none;stroke:#000000;stroke-width:0.75;stroke-linecap:butt;stroke-linejoin:miter;stroke-miterlimit:10;stroke-dasharray:none;stroke-opacity:1"
       d="M 63.5,170.75 L 56.75,170.75" /><path
       id="path2582"
       style="fill:none;stroke:#000000;stroke-width:0.75;stroke-linecap:butt;stroke-linejoin:miter;stroke-miterlimit:10;stroke-dasharray:none;stroke-opacity:1"
       d="M 63.5,177 L 56.75,177" /><path
       id="path2584"
       style="fill:none;stroke:#000000;stroke-width:0.75;stroke-linecap:butt;stroke-linejoin:miter;stroke-miterlimit:10;stroke-dasharray:none;stroke-opacity:1"
       d="M 63.5,183 L 56.75,183" /><path
       id="path2586"
       style="fill:none;stroke:#000000;stroke-width:0.75;stroke-linecap:butt;stroke-linejoin:miter;stroke-miterlimit:10;stroke-dasharray:none;stroke-opacity:1"
       d="M 63.5,189 L 56.75,189" /><path
       id="path2588"
       style="fill:none;stroke:#000000;stroke-width:0.75;stroke-linecap:butt;stroke-linejoin:miter;stroke-miterlimit:10;stroke-dasharray:none;stroke-opacity:1"
       d="M 63.5,195 L 56.75,195" /><path
       id="path2590"
       style="fill:none;stroke:#000000;stroke-width:0.75;stroke-linecap:butt;stroke-linejoin:miter;stroke-miterlimit:10;stroke-dasharray:none;stroke-opacity:1"
       d="M 63.5,201 L 56.75,201" /><path
       id="path2592"
       style="fill:none;stroke:#000000;stroke-width:0.75;stroke-linecap:butt;stroke-linejoin:miter;stroke-miterlimit:10;stroke-dasharray:none;stroke-opacity:1"
       d="M 63.5,207 L 56.75,207" /><path
       id="path2594"
       style="fill:none;stroke:#000000;stroke-width:0.75;stroke-linecap:butt;stroke-linejoin:miter;stroke-miterlimit:10;stroke-dasharray:none;stroke-opacity:1"
       d="M 63.5,213.25 L 56.75,213.25" /><path
       id="path2596"
       style="fill:none;stroke:#000000;stroke-width:0.75;stroke-linecap:butt;stroke-linejoin:miter;stroke-miterlimit:10;stroke-dasharray:none;stroke-opacity:1"
       d="M 70.25,219.25 L 56.75,219.25" /><path
       id="path2598"
       style="fill:none;stroke:#000000;stroke-width:0.75;stroke-linecap:butt;stroke-linejoin:miter;stroke-miterlimit:10;stroke-dasharray:none;stroke-opacity:1"
       d="M 63.5,225.25 L 56.75,225.25" /><path
       id="path2600"
       style="fill:none;stroke:#000000;stroke-width:0.75;stroke-linecap:butt;stroke-linejoin:miter;stroke-miterlimit:10;stroke-dasharray:none;stroke-opacity:1"
       d="M 63.5,231.25 L 56.75,231.25" /><path
       id="path2602"
       style="fill:none;stroke:#000000;stroke-width:0.75;stroke-linecap:butt;stroke-linejoin:miter;stroke-miterlimit:10;stroke-dasharray:none;stroke-opacity:1"
       d="M 63.5,237.25 L 56.75,237.25" /><path
       id="path2604"
       style="fill:none;stroke:#000000;stroke-width:0.75;stroke-linecap:butt;stroke-linejoin:miter;stroke-miterlimit:10;stroke-dasharray:none;stroke-opacity:1"
       d="M 63.5,243.5 L 56.75,243.5" /><path
       id="path2606"
       style="fill:none;stroke:#000000;stroke-width:0.75;stroke-linecap:butt;stroke-linejoin:miter;stroke-miterlimit:10;stroke-dasharray:none;stroke-opacity:1"
       d="M 63.5,249.5 L 56.75,249.5" /><path
       id="path2608"
       style="fill:none;stroke:#000000;stroke-width:0.75;stroke-linecap:butt;stroke-linejoin:miter;stroke-miterlimit:10;stroke-dasharray:none;stroke-opacity:1"
       d="M 63.5,255.5 L 56.75,255.5" /><path
       id="path2610"
       style="fill:none;stroke:#000000;stroke-width:0.75;stroke-linecap:butt;stroke-linejoin:miter;stroke-miterlimit:10;stroke-dasharray:none;stroke-opacity:1"
       d="M 63.5,261.5 L 56.75,261.5" /><path
       id="path2612"
       style="fill:none;stroke:#000000;stroke-width:0.75;stroke-linecap:butt;stroke-linejoin:miter;stroke-miterlimit:10;stroke-dasharray:none;stroke-opacity:1"
       d="M 63.5,267.5 L 56.75,267.5" /><path
       id="path2614"
       style="fill:none;stroke:#000000;stroke-width:0.75;stroke-linecap:butt;stroke-linejoin:miter;stroke-miterlimit:10;stroke-dasharray:none;stroke-opacity:1"
       d="M 63.5,273.75 L 56.75,273.75" /><path
       id="path2616"
       style="fill:none;stroke:#000000;stroke-width:0.75;stroke-linecap:butt;stroke-linejoin:miter;stroke-miterlimit:10;stroke-dasharray:none;stroke-opacity:1"
       d="M 70.25,279.75 L 56.75,279.75" /><path
       id="path2618"
       style="fill:none;stroke:#000000;stroke-width:0.75;stroke-linecap:butt;stroke-linejoin:miter;stroke-miterlimit:10;stroke-dasharray:none;stroke-opacity:1"
       d="M 63.5,285.75 L 56.75,285.75" /><path
       id="path2620"
       style="fill:none;stroke:#000000;stroke-width:0.75;stroke-linecap:butt;stroke-linejoin:miter;stroke-miterlimit:10;stroke-dasharray:none;stroke-opacity:1"
       d="M 63.5,291.75 L 56.75,291.75" /><path
       id="path2622"
       style="fill:none;stroke:#000000;stroke-width:0.75;stroke-linecap:butt;stroke-linejoin:miter;stroke-miterlimit:10;stroke-dasharray:none;stroke-opacity:1"
       d="M 63.5,297.75 L 56.75,297.75" /><path
       id="path2624"
       style="fill:none;stroke:#000000;stroke-width:0.75;stroke-linecap:butt;stroke-linejoin:miter;stroke-miterlimit:10;stroke-dasharray:none;stroke-opacity:1"
       d="M 63.5,303.75 L 56.75,303.75" /><path
       id="path2626"
       style="fill:none;stroke:#000000;stroke-width:0.75;stroke-linecap:butt;stroke-linejoin:miter;stroke-miterlimit:10;stroke-dasharray:none;stroke-opacity:1"
       d="M 63.5,310 L 56.75,310" /><path
       id="path2628"
       style="fill:none;stroke:#000000;stroke-width:0.75;stroke-linecap:butt;stroke-linejoin:miter;stroke-miterlimit:10;stroke-dasharray:none;stroke-opacity:1"
       d="M 63.5,316 L 56.75,316" /><path
       id="path2630"
       style="fill:none;stroke:#000000;stroke-width:0.75;stroke-linecap:butt;stroke-linejoin:miter;stroke-miterlimit:10;stroke-dasharray:none;stroke-opacity:1"
       d="M 63.5,322 L 56.75,322" /><path
       id="path2632"
       style="fill:none;stroke:#000000;stroke-width:0.75;stroke-linecap:butt;stroke-linejoin:miter;stroke-miterlimit:10;stroke-dasharray:none;stroke-opacity:1"
       d="M 63.5,328 L 56.75,328" /><path
       id="path2634"
       style="fill:none;stroke:#000000;stroke-width:0.75;stroke-linecap:butt;stroke-linejoin:miter;stroke-miterlimit:10;stroke-dasharray:none;stroke-opacity:1"
       d="M 63.5,334 L 56.75,334" /><path
       id="path2636"
       style="fill:none;stroke:#000000;stroke-width:0.75;stroke-linecap:butt;stroke-linejoin:miter;stroke-miterlimit:10;stroke-dasharray:none;stroke-opacity:1"
       d="M 70.25,340.25 L 56.75,340.25" /><path
       id="path2638"
       style="fill:none;stroke:#000000;stroke-width:0.75;stroke-linecap:butt;stroke-linejoin:miter;stroke-miterlimit:10;stroke-dasharray:none;stroke-opacity:1"
       d="M 70.25,340.25 L 56.75,340.25" /><g
       id="g2640"><text
         id="text2642"
         transform="matrix(1,0,0,-1,46,31.5)"><tspan
           id="tspan2644"
           y="0"
           x="0"
           style="font-size:13.85830021px;font-variant:normal;font-weight:bold;writing-mode:lr-tb;fill:#000000;fill-opacity:1;fill-rule:nonzero;stroke:none;font-family:Helvetica;-inkscape-font-specification:Helvetica-Bold">0</tspan><tspan
           id="tspan2646"
           sodipodi:role="line"
           y="-60.5"
           x="-9.5 -1.7947851 2.0578222"
           style="font-size:13.85830021px;font-variant:normal;font-weight:bold;writing-mode:lr-tb;fill:#000000;fill-opacity:1;fill-rule:nonzero;stroke:none;font-family:Helvetica;-inkscape-font-specification:Helvetica-Bold">0.1</tspan><tspan
           id="tspan2648"
           sodipodi:role="line"
           y="-121"
           x="-11.25 -3.5447853 0.3078222"
           style="font-size:13.85830021px;font-variant:normal;font-weight:bold;writing-mode:lr-tb;fill:#000000;fill-opacity:1;fill-rule:nonzero;stroke:none;font-family:Helvetica;-inkscape-font-specification:Helvetica-Bold">0.2</tspan><tspan
           id="tspan2650"
           sodipodi:role="line"
           y="-181.5"
           x="-11.25 -3.5447853 0.3078222"
           style="font-size:13.85830021px;font-variant:normal;font-weight:bold;writing-mode:lr-tb;fill:#000000;fill-opacity:1;fill-rule:nonzero;stroke:none;font-family:Helvetica;-inkscape-font-specification:Helvetica-Bold">0.3</tspan><tspan
           id="tspan2652"
           sodipodi:role="line"
           y="-242"
           x="-11.25 -3.5447853 0.3078222"
           style="font-size:13.85830021px;font-variant:normal;font-weight:bold;writing-mode:lr-tb;fill:#000000;fill-opacity:1;fill-rule:nonzero;stroke:none;font-family:Helvetica;-inkscape-font-specification:Helvetica-Bold">0.4</tspan><tspan
           id="tspan2654"
           sodipodi:role="line"
           y="-302.25"
           x="-11.25 -3.5447853 0.3078222"
           style="font-size:13.85830021px;font-variant:normal;font-weight:bold;writing-mode:lr-tb;fill:#000000;fill-opacity:1;fill-rule:nonzero;stroke:none;font-family:Helvetica;-inkscape-font-specification:Helvetica-Bold">0.5</tspan></text>
</g><path
       id="path2656"
       style="fill:none;stroke:#000000;stroke-width:1.5;stroke-linecap:butt;stroke-linejoin:miter;stroke-miterlimit:10;stroke-dasharray:5, 5;stroke-dashoffset:0;stroke-opacity:1"
       d="M 113.5,143.75 L 226.75,222.25 L 340.25,276 L 453.5,315.75" /><path
       id="path2658"
       style="fill:#000000;fill-opacity:1;fill-rule:evenodd;stroke:none"
       d="M 453.75,315.75 C 453.75,315.888 453.638,316 453.5,316 C 453.362,316 453.25,315.888 453.25,315.75 C 453.25,315.612 453.362,315.5 453.5,315.5 C 453.638,315.5 453.75,315.612 453.75,315.75" /><path
       id="path2660"
       style="fill:#000000;fill-opacity:1;fill-rule:evenodd;stroke:none"
       d="M 340.5,276 C 340.5,276.138 340.388,276.25 340.25,276.25 C 340.112,276.25 340,276.138 340,276 C 340,275.862 340.112,275.75 340.25,275.75 C 340.388,275.75 340.5,275.862 340.5,276" /><path
       id="path2662"
       style="fill:#000000;fill-opacity:1;fill-rule:evenodd;stroke:none"
       d="M 227,222.25 C 227,222.388 226.888,222.5 226.75,222.5 C 226.612,222.5 226.5,222.388 226.5,222.25 C 226.5,222.112 226.612,222 226.75,222 C 226.888,222 227,222.112 227,222.25" /><path
       id="path2664"
       style="fill:#000000;fill-opacity:1;fill-rule:evenodd;stroke:none"
       d="M 113.75,143.75 C 113.75,143.888 113.638,144 113.5,144 C 113.362,144 113.25,143.888 113.25,143.75 C 113.25,143.612 113.362,143.5 113.5,143.5 C 113.638,143.5 113.75,143.612 113.75,143.75" /><path
       id="path2666"
       style="fill:none;stroke:#ff0000;stroke-width:1.5;stroke-linecap:butt;stroke-linejoin:miter;stroke-miterlimit:10;stroke-dasharray:5, 3, 1, 3, 1, 3;stroke-dashoffset:0;stroke-opacity:1"
       d="M 113.5,121.25 L 226.75,198.5 L 340.25,234.75 L 453.5,267.25" /><path
       id="path2668"
       style="fill:#000000;fill-opacity:1;fill-rule:evenodd;stroke:none"
       d="M 453.75,267.25 C 453.75,267.388 453.638,267.5 453.5,267.5 C 453.362,267.5 453.25,267.388 453.25,267.25 C 453.25,267.112 453.362,267 453.5,267 C 453.638,267 453.75,267.112 453.75,267.25" /><path
       id="path2670"
       style="fill:#000000;fill-opacity:1;fill-rule:evenodd;stroke:none"
       d="M 340.5,234.75 C 340.5,234.888 340.388,235 340.25,235 C 340.112,235 340,234.888 340,234.75 C 340,234.612 340.112,234.5 340.25,234.5 C 340.388,234.5 340.5,234.612 340.5,234.75" /><path
       id="path2672"
       style="fill:#000000;fill-opacity:1;fill-rule:evenodd;stroke:none"
       d="M 227,198.5 C 227,198.638 226.888,198.75 226.75,198.75 C 226.612,198.75 226.5,198.638 226.5,198.5 C 226.5,198.362 226.612,198.25 226.75,198.25 C 226.888,198.25 227,198.362 227,198.5" /><path
       id="path2674"
       style="fill:#000000;fill-opacity:1;fill-rule:evenodd;stroke:none"
       d="M 113.75,121.25 C 113.75,121.388 113.638,121.5 113.5,121.5 C 113.362,121.5 113.25,121.388 113.25,121.25 C 113.25,121.112 113.362,121 113.5,121 C 113.638,121 113.75,121.112 113.75,121.25" /><path
       id="path2676"
       style="fill:none;stroke:#008000;stroke-width:1.5;stroke-linecap:butt;stroke-linejoin:miter;stroke-miterlimit:10;stroke-dasharray:20, 5;stroke-dashoffset:0;stroke-opacity:1"
       d="M 113.5,116.75 L 226.75,185 L 340.25,213.5 L 453.5,243.5" /><path
       id="path2678"
       style="fill:#000000;fill-opacity:1;fill-rule:evenodd;stroke:none"
       d="M 453.75,243.5 C 453.75,243.638 453.638,243.75 453.5,243.75 C 453.362,243.75 453.25,243.638 453.25,243.5 C 453.25,243.362 453.362,243.25 453.5,243.25 C 453.638,243.25 453.75,243.362 453.75,243.5" /><path
       id="path2680"
       style="fill:#000000;fill-opacity:1;fill-rule:evenodd;stroke:none"
       d="M 340.5,213.5 C 340.5,213.638 340.388,213.75 340.25,213.75 C 340.112,213.75 340,213.638 340,213.5 C 340,213.362 340.112,213.25 340.25,213.25 C 340.388,213.25 340.5,213.362 340.5,213.5" /><path
       id="path2682"
       style="fill:#000000;fill-opacity:1;fill-rule:evenodd;stroke:none"
       d="M 227,185 C 227,185.138 226.888,185.25 226.75,185.25 C 226.612,185.25 226.5,185.138 226.5,185 C 226.5,184.862 226.612,184.75 226.75,184.75 C 226.888,184.75 227,184.862 227,185" /><path
       id="path2684"
       style="fill:#000000;fill-opacity:1;fill-rule:evenodd;stroke:none"
       d="M 113.75,116.75 C 113.75,116.888 113.638,117 113.5,117 C 113.362,117 113.25,116.888 113.25,116.75 C 113.25,116.612 113.362,116.5 113.5,116.5 C 113.638,116.5 113.75,116.612 113.75,116.75" /><path
       id="path2686"
       style="fill:none;stroke:#0000ff;stroke-width:1.5;stroke-linecap:butt;stroke-linejoin:miter;stroke-miterlimit:10;stroke-dasharray:none;stroke-opacity:1"
       d="M 113.5,109 L 226.75,176.25 L 340.25,207 L 453.5,224.5" /><path
       id="path2688"
       style="fill:#000000;fill-opacity:1;fill-rule:evenodd;stroke:none"
       d="M 453.75,224.5 C 453.75,224.638 453.638,224.75 453.5,224.75 C 453.362,224.75 453.25,224.638 453.25,224.5 C 453.25,224.362 453.362,224.25 453.5,224.25 C 453.638,224.25 453.75,224.362 453.75,224.5" /><path
       id="path2690"
       style="fill:#000000;fill-opacity:1;fill-rule:evenodd;stroke:none"
       d="M 340.5,207 C 340.5,207.138 340.388,207.25 340.25,207.25 C 340.112,207.25 340,207.138 340,207 C 340,206.862 340.112,206.75 340.25,206.75 C 340.388,206.75 340.5,206.862 340.5,207" /><path
       id="path2692"
       style="fill:#000000;fill-opacity:1;fill-rule:evenodd;stroke:none"
       d="M 227,176.25 C 227,176.388 226.888,176.5 226.75,176.5 C 226.612,176.5 226.5,176.388 226.5,176.25 C 226.5,176.112 226.612,176 226.75,176 C 226.888,176 227,176.112 227,176.25" /><path
       id="path2694"
       style="fill:#000000;fill-opacity:1;fill-rule:evenodd;stroke:none"
       d="M 113.75,109 C 113.75,109.138 113.638,109.25 113.5,109.25 C 113.362,109.25 113.25,109.138 113.25,109 C 113.25,108.862 113.362,108.75 113.5,108.75 C 113.638,108.75 113.75,108.862 113.75,109" /><path
       id="path2696"
       style="fill:#ffffff;fill-opacity:1;fill-rule:evenodd;stroke:none"
       d="M 79.25,230.5 L 164.5,230.5 L 164.5,325 L 79.25,325 L 79.25,230.5 z" /><path
       id="path2698"
       style="fill:#ffffff;fill-opacity:1;fill-rule:evenodd;stroke:none"
       d="M 83.25,230.5 L 83.25,228 L 167,228 L 167,321.25 L 164.5,321.25 L 164.5,230.5" /><text
       transform="scale(1,-1)"
       id="text2712"
       x="83.25"
       y="-312.5"><tspan
         style="font-size:10.70860004px;font-variant:normal;font-weight:bold;writing-mode:lr-tb;fill:#000000;fill-opacity:1;fill-rule:nonzero;stroke:none;font-family:Helvetica;-inkscape-font-specification:Helvetica-Bold"
         x="83.25"
         y="-312.5"
         id="tspan2714"> </tspan><tspan
         style="font-size:10.70860004px;font-variant:normal;font-weight:bold;writing-mode:lr-tb;fill:#000000;fill-opacity:1;fill-rule:nonzero;stroke:none;font-family:Helvetica;-inkscape-font-specification:Helvetica-Bold"
         x="121.5 127.45398 130.43097"
         y="-291.75"
         sodipodi:role="line"
         id="tspan2716">4.0</tspan></text>
<path
       id="path2718"
       style="fill:none;stroke:#000000;stroke-width:1.5;stroke-linecap:butt;stroke-linejoin:miter;stroke-miterlimit:10;stroke-dasharray:5, 5;stroke-dashoffset:0;stroke-opacity:1"
       d="M 85.75,296.75 L 115.5,296.75" /><g
       id="g2720"><text
         id="text2722"
         transform="matrix(1,0,0,-1,121.5,272.75)"><tspan
           id="tspan2724"
           sodipodi:role="line"
           y="0"
           x="0 5.9539814 8.9309721"
           style="font-size:10.70860004px;font-variant:normal;font-weight:bold;writing-mode:lr-tb;fill:#000000;fill-opacity:1;fill-rule:nonzero;stroke:none;font-family:Helvetica;-inkscape-font-specification:Helvetica-Bold">3.0</tspan></text>
</g><path
       id="path2726"
       style="fill:none;stroke:#ff0000;stroke-width:1.5;stroke-linecap:butt;stroke-linejoin:miter;stroke-miterlimit:10;stroke-dasharray:5, 3, 1, 3, 1, 3;stroke-dashoffset:0;stroke-opacity:1"
       d="M 85.75,277.75 L 115.5,277.75" /><g
       id="g2728"><text
         id="text2730"
         transform="matrix(1,0,0,-1,121.5,253.75)"><tspan
           id="tspan2732"
           sodipodi:role="line"
           y="0"
           x="0 5.9539814 8.9309721"
           style="font-size:10.70860004px;font-variant:normal;font-weight:bold;writing-mode:lr-tb;fill:#000000;fill-opacity:1;fill-rule:nonzero;stroke:none;font-family:Helvetica;-inkscape-font-specification:Helvetica-Bold">2.0</tspan></text>
</g><path
       id="path2734"
       style="fill:none;stroke:#008000;stroke-width:1.5;stroke-linecap:butt;stroke-linejoin:miter;stroke-miterlimit:10;stroke-dasharray:20, 5;stroke-dashoffset:0;stroke-opacity:1"
       d="M 85.75,259 L 115.5,259" /><g
       id="g2736"><text
         id="text2738"
         transform="matrix(1,0,0,-1,121.5,235)"><tspan
           id="tspan2740"
           sodipodi:role="line"
           y="0"
           x="0 5.9539814 8.9309721"
           style="font-size:10.70860004px;font-variant:normal;font-weight:bold;writing-mode:lr-tb;fill:#000000;fill-opacity:1;fill-rule:nonzero;stroke:none;font-family:Helvetica;-inkscape-font-specification:Helvetica-Bold">0.5</tspan></text>
</g><path
       id="path2742"
       style="fill:none;stroke:#0000ff;stroke-width:1.5;stroke-linecap:butt;stroke-linejoin:miter;stroke-miterlimit:10;stroke-dasharray:none;stroke-opacity:1"
       d="M 85.75,240 L 115.5,240" /><g
       id="g3313"
       transform="matrix(1.1004847,0,0,1.1004847,-46.348465,29.54828)"><text
         y="22.5"
         x="274"
         transform="scale(1,-1)"
         id="text3287"><tspan
           y="22.5"
           x="274"
           style="font-size:13.85830021px;font-variant:normal;font-weight:bold;writing-mode:lr-tb;fill:#000000;fill-opacity:1;fill-rule:nonzero;stroke:none;font-family:Helvetica;-inkscape-font-specification:Helvetica-Bold"
           sodipodi:role="line"
           id="tspan3289">  (GeV/c  )</tspan></text>
<text
         y="25.75"
         x="269"
         transform="scale(1,-1)"
         id="text3291"><tspan
           style="font-size:9.44882011px;font-variant:normal;font-weight:bold;writing-mode:lr-tb;fill:#000000;fill-opacity:1;fill-rule:nonzero;stroke:none;font-family:Helvetica;-inkscape-font-specification:Helvetica-Bold"
           x="269"
           y="25.75"
           id="tspan3293">h</tspan></text>
<text
         y="22.5"
         x="257"
         transform="scale(1,-1)"
         id="text3295"><tspan
           style="font-size:13.85830021px;font-variant:normal;font-weight:bold;writing-mode:lr-tb;fill:#000000;fill-opacity:1;fill-rule:nonzero;stroke:none;font-family:Helvetica;-inkscape-font-specification:Helvetica-Bold"
           x="257"
           y="22.5"
           id="tspan3297">m</tspan></text>
<text
         style="font-size:7.65490532px"
         id="text3305"
         transform="scale(1,-1)"
         x="274.74237"
         y="28.583549"><tspan
           id="tspan3307"
           y="28.583549"
           x="274.74237"
           style="font-size:6.02748537px;font-variant:normal;font-weight:bold;writing-mode:lr-tb;fill:#000000;fill-opacity:1;fill-rule:nonzero;stroke:none;font-family:Helvetica;-inkscape-font-specification:Helvetica-Bold">1</tspan></text>
<text
         y="17.313673"
         x="327.32675"
         transform="scale(1,-1)"
         id="text3309"
         style="font-size:11.3561573px"><tspan
           style="font-size:8.94185829px;font-variant:normal;font-weight:bold;writing-mode:lr-tb;fill:#000000;fill-opacity:1;fill-rule:nonzero;stroke:none;font-family:Helvetica;-inkscape-font-specification:Helvetica-Bold"
           x="327.32675"
           y="17.313673"
           id="tspan3311">2</tspan></text>
</g><g
       transform="matrix(0.7753574,0,0,0.7753574,-116.04041,329.96626)"
       id="g3372"><text
         id="text3374"
         transform="scale(1,-1)"
         x="274"
         y="22.5"><tspan
           id="tspan3376"
           sodipodi:role="line"
           style="font-size:13.85830021px;font-variant:normal;font-weight:bold;writing-mode:lr-tb;fill:#000000;fill-opacity:1;fill-rule:nonzero;stroke:none;font-family:Helvetica;-inkscape-font-specification:Helvetica-Bold"
           x="274"
           y="22.5">  (GeV/c  )</tspan></text>
<text
         id="text3378"
         transform="scale(1,-1)"
         x="269"
         y="25.75"><tspan
           id="tspan3380"
           y="25.75"
           x="269"
           style="font-size:9.44882011px;font-variant:normal;font-weight:bold;writing-mode:lr-tb;fill:#000000;fill-opacity:1;fill-rule:nonzero;stroke:none;font-family:Helvetica;-inkscape-font-specification:Helvetica-Bold">a</tspan></text>
<text
         id="text3382"
         transform="scale(1,-1)"
         x="257"
         y="22.5"><tspan
           id="tspan3384"
           y="22.5"
           x="257"
           style="font-size:13.85830021px;font-variant:normal;font-weight:bold;writing-mode:lr-tb;fill:#000000;fill-opacity:1;fill-rule:nonzero;stroke:none;font-family:Helvetica;-inkscape-font-specification:Helvetica-Bold">m</tspan></text>
<text
         y="28.583549"
         x="274.74237"
         transform="scale(1,-1)"
         id="text3386"
         style="font-size:7.65490532px"><tspan
           style="font-size:6.02748537px;font-variant:normal;font-weight:bold;writing-mode:lr-tb;fill:#000000;fill-opacity:1;fill-rule:nonzero;stroke:none;font-family:Helvetica;-inkscape-font-specification:Helvetica-Bold"
           x="274.74237"
           y="28.583549"
           id="tspan3388">1</tspan></text>
<text
         style="font-size:11.3561573px"
         id="text3390"
         transform="scale(1,-1)"
         x="327.32675"
         y="17.313673"><tspan
           id="tspan3392"
           y="17.313673"
           x="327.32675"
           style="font-size:8.94185829px;font-variant:normal;font-weight:bold;writing-mode:lr-tb;fill:#000000;fill-opacity:1;fill-rule:nonzero;stroke:none;font-family:Helvetica;-inkscape-font-specification:Helvetica-Bold">2</tspan></text>
</g><text
       xml:space="preserve"
       style="font-size:21.85494614px;font-style:normal;font-variant:normal;font-weight:normal;font-stretch:normal;text-align:start;line-height:125%;writing-mode:lr-tb;text-anchor:start;fill:#000000;fill-opacity:1;stroke:none;stroke-width:1px;stroke-linecap:butt;stroke-linejoin:miter;stroke-opacity:1;font-family:Bitstream Vera Sans;-inkscape-font-specification:Bitstream Vera Sans"
       x="464.04324"
       y="-62.908848"
       id="text48807"
       sodipodi:linespacing="125%"
       transform="scale(1,-1)"><tspan
         sodipodi:role="line"
         id="tspan48809"
         x="464.04324"
         y="-62.908848">(a)</tspan></text>
</g></svg>