<?xml version="1.0" encoding="UTF-8" standalone="no"?>
<!-- Created with Inkscape (http://www.inkscape.org/) -->
<svg
   xmlns:dc="http://purl.org/dc/elements/1.1/"
   xmlns:cc="http://creativecommons.org/ns#"
   xmlns:rdf="http://www.w3.org/1999/02/22-rdf-syntax-ns#"
   xmlns:svg="http://www.w3.org/2000/svg"
   xmlns="http://www.w3.org/2000/svg"
   xmlns:sodipodi="http://sodipodi.sourceforge.net/DTD/sodipodi-0.dtd"
   xmlns:inkscape="http://www.inkscape.org/namespaces/inkscape"
   id="svg2744"
   sodipodi:version="0.32"
   inkscape:version="0.46"
   width="633.39722"
   height="435.96112"
   xml:space="preserve"
   sodipodi:docname="acceptance_vs_ma.svg"
   inkscape:output_extension="org.inkscape.output.svg.inkscape"
   version="1.0"><metadata
     id="metadata2749"><rdf:RDF><cc:Work
         rdf:about=""><dc:format>image/svg+xml</dc:format><dc:type
           rdf:resource="http://purl.org/dc/dcmitype/StillImage" /></cc:Work></rdf:RDF></metadata><defs
     id="defs2747"><inkscape:perspective
       sodipodi:type="inkscape:persp3d"
       inkscape:vp_x="0 : 526.18109 : 1"
       inkscape:vp_y="0 : 1000 : 0"
       inkscape:vp_z="744.09448 : 526.18109 : 1"
       inkscape:persp3d-origin="372.04724 : 350.78739 : 1"
       id="perspective2751" /></defs><sodipodi:namedview
     inkscape:window-height="846"
     inkscape:window-width="1434"
     inkscape:pageshadow="2"
     inkscape:pageopacity="0.0"
     guidetolerance="10.0"
     gridtolerance="10.0"
     objecttolerance="10.0"
     borderopacity="1.0"
     bordercolor="#666666"
     pagecolor="#ffffff"
     id="base"
     showgrid="false"
     inkscape:zoom="1.1293755"
     inkscape:cx="290.9611"
     inkscape:cy="210.34877"
     inkscape:window-x="0"
     inkscape:window-y="0"
     inkscape:current-layer="g2753" /><g
     id="g2753"
     inkscape:groupmode="layer"
     inkscape:label="acceptance_vs_ma"
     transform="matrix(1.25,0,0,-1.25,-12.148923,431.44423)"><g
       transform="matrix(0.7753574,0,0,0.7753574,224.11627,341.38518)"
       id="g3372"><text
         id="text3374"
         transform="scale(1,-1)"
         x="274"
         y="22.5"><tspan
           id="tspan3376"
           sodipodi:role="line"
           style="font-size:13.85830021px;font-variant:normal;font-weight:bold;writing-mode:lr-tb;fill:#000000;fill-opacity:1;fill-rule:nonzero;stroke:none;font-family:Helvetica;-inkscape-font-specification:Helvetica-Bold"
           x="274"
           y="22.5">  (GeV/c  )</tspan></text>
<text
         id="text3378"
         transform="scale(1,-1)"
         x="269"
         y="25.75"><tspan
           id="tspan3380"
           y="25.75"
           x="269"
           style="font-size:9.44882011px;font-variant:normal;font-weight:bold;writing-mode:lr-tb;fill:#000000;fill-opacity:1;fill-rule:nonzero;stroke:none;font-family:Helvetica;-inkscape-font-specification:Helvetica-Bold">h</tspan></text>
<text
         id="text3382"
         transform="scale(1,-1)"
         x="257"
         y="22.5"><tspan
           id="tspan3384"
           y="22.5"
           x="257"
           style="font-size:13.85830021px;font-variant:normal;font-weight:bold;writing-mode:lr-tb;fill:#000000;fill-opacity:1;fill-rule:nonzero;stroke:none;font-family:Helvetica;-inkscape-font-specification:Helvetica-Bold">m</tspan></text>
<text
         y="28.583549"
         x="274.74237"
         transform="scale(1,-1)"
         id="text3386"
         style="font-size:7.65490532px"><tspan
           style="font-size:6.02748537px;font-variant:normal;font-weight:bold;writing-mode:lr-tb;fill:#000000;fill-opacity:1;fill-rule:nonzero;stroke:none;font-family:Helvetica;-inkscape-font-specification:Helvetica-Bold"
           x="274.74237"
           y="28.583549"
           id="tspan3388">1</tspan></text>
<text
         style="font-size:11.3561573px"
         id="text3390"
         transform="scale(1,-1)"
         x="327.32675"
         y="17.313673"><tspan
           id="tspan3392"
           y="17.313673"
           x="327.32675"
           style="font-size:8.94185829px;font-variant:normal;font-weight:bold;writing-mode:lr-tb;fill:#000000;fill-opacity:1;fill-rule:nonzero;stroke:none;font-family:Helvetica;-inkscape-font-specification:Helvetica-Bold">2</tspan></text>
</g><path
       id="path2759"
       style="fill:none;stroke:#000000;stroke-width:0.75;stroke-linecap:butt;stroke-linejoin:miter;stroke-miterlimit:10;stroke-dasharray:none;stroke-opacity:1"
       d="M 56.75,37.75 L 510.25,37.75 L 510.25,340.25 L 56.75,340.25 L 56.75,37.75 z" /><path
       id="path2761"
       style="fill:none;stroke:#000000;stroke-width:0.75;stroke-linecap:butt;stroke-linejoin:miter;stroke-miterlimit:10;stroke-dasharray:none;stroke-opacity:1"
       d="M 56.75,37.75 L 510.25,37.75" /><path
       id="path2777"
       style="fill:none;stroke:#000000;stroke-width:0.75;stroke-linecap:butt;stroke-linejoin:miter;stroke-miterlimit:10;stroke-dasharray:none;stroke-opacity:1"
       d="M 56.75,46.75 L 56.75,37.75" /><path
       id="path2779"
       style="fill:none;stroke:#000000;stroke-width:0.75;stroke-linecap:butt;stroke-linejoin:miter;stroke-miterlimit:10;stroke-dasharray:none;stroke-opacity:1"
       d="M 65.75,42.25 L 65.75,37.75" /><path
       id="path2781"
       style="fill:none;stroke:#000000;stroke-width:0.75;stroke-linecap:butt;stroke-linejoin:miter;stroke-miterlimit:10;stroke-dasharray:none;stroke-opacity:1"
       d="M 74.75,42.25 L 74.75,37.75" /><path
       id="path2783"
       style="fill:none;stroke:#000000;stroke-width:0.75;stroke-linecap:butt;stroke-linejoin:miter;stroke-miterlimit:10;stroke-dasharray:none;stroke-opacity:1"
       d="M 84,42.25 L 84,37.75" /><path
       id="path2785"
       style="fill:none;stroke:#000000;stroke-width:0.75;stroke-linecap:butt;stroke-linejoin:miter;stroke-miterlimit:10;stroke-dasharray:none;stroke-opacity:1"
       d="M 93,42.25 L 93,37.75" /><path
       id="path2787"
       style="fill:none;stroke:#000000;stroke-width:0.75;stroke-linecap:butt;stroke-linejoin:miter;stroke-miterlimit:10;stroke-dasharray:none;stroke-opacity:1"
       d="M 102,42.25 L 102,37.75" /><path
       id="path2789"
       style="fill:none;stroke:#000000;stroke-width:0.75;stroke-linecap:butt;stroke-linejoin:miter;stroke-miterlimit:10;stroke-dasharray:none;stroke-opacity:1"
       d="M 111,42.25 L 111,37.75" /><path
       id="path2791"
       style="fill:none;stroke:#000000;stroke-width:0.75;stroke-linecap:butt;stroke-linejoin:miter;stroke-miterlimit:10;stroke-dasharray:none;stroke-opacity:1"
       d="M 120.25,42.25 L 120.25,37.75" /><path
       id="path2793"
       style="fill:none;stroke:#000000;stroke-width:0.75;stroke-linecap:butt;stroke-linejoin:miter;stroke-miterlimit:10;stroke-dasharray:none;stroke-opacity:1"
       d="M 129.25,42.25 L 129.25,37.75" /><path
       id="path2795"
       style="fill:none;stroke:#000000;stroke-width:0.75;stroke-linecap:butt;stroke-linejoin:miter;stroke-miterlimit:10;stroke-dasharray:none;stroke-opacity:1"
       d="M 138.25,42.25 L 138.25,37.75" /><path
       id="path2797"
       style="fill:none;stroke:#000000;stroke-width:0.75;stroke-linecap:butt;stroke-linejoin:miter;stroke-miterlimit:10;stroke-dasharray:none;stroke-opacity:1"
       d="M 147.5,46.75 L 147.5,37.75" /><path
       id="path2799"
       style="fill:none;stroke:#000000;stroke-width:0.75;stroke-linecap:butt;stroke-linejoin:miter;stroke-miterlimit:10;stroke-dasharray:none;stroke-opacity:1"
       d="M 156.5,42.25 L 156.5,37.75" /><path
       id="path2801"
       style="fill:none;stroke:#000000;stroke-width:0.75;stroke-linecap:butt;stroke-linejoin:miter;stroke-miterlimit:10;stroke-dasharray:none;stroke-opacity:1"
       d="M 165.5,42.25 L 165.5,37.75" /><path
       id="path2803"
       style="fill:none;stroke:#000000;stroke-width:0.75;stroke-linecap:butt;stroke-linejoin:miter;stroke-miterlimit:10;stroke-dasharray:none;stroke-opacity:1"
       d="M 174.5,42.25 L 174.5,37.75" /><path
       id="path2805"
       style="fill:none;stroke:#000000;stroke-width:0.75;stroke-linecap:butt;stroke-linejoin:miter;stroke-miterlimit:10;stroke-dasharray:none;stroke-opacity:1"
       d="M 183.75,42.25 L 183.75,37.75" /><path
       id="path2807"
       style="fill:none;stroke:#000000;stroke-width:0.75;stroke-linecap:butt;stroke-linejoin:miter;stroke-miterlimit:10;stroke-dasharray:none;stroke-opacity:1"
       d="M 192.75,42.25 L 192.75,37.75" /><path
       id="path2809"
       style="fill:none;stroke:#000000;stroke-width:0.75;stroke-linecap:butt;stroke-linejoin:miter;stroke-miterlimit:10;stroke-dasharray:none;stroke-opacity:1"
       d="M 201.75,42.25 L 201.75,37.75" /><path
       id="path2811"
       style="fill:none;stroke:#000000;stroke-width:0.75;stroke-linecap:butt;stroke-linejoin:miter;stroke-miterlimit:10;stroke-dasharray:none;stroke-opacity:1"
       d="M 211,42.25 L 211,37.75" /><path
       id="path2813"
       style="fill:none;stroke:#000000;stroke-width:0.75;stroke-linecap:butt;stroke-linejoin:miter;stroke-miterlimit:10;stroke-dasharray:none;stroke-opacity:1"
       d="M 220,42.25 L 220,37.75" /><path
       id="path2815"
       style="fill:none;stroke:#000000;stroke-width:0.75;stroke-linecap:butt;stroke-linejoin:miter;stroke-miterlimit:10;stroke-dasharray:none;stroke-opacity:1"
       d="M 229,42.25 L 229,37.75" /><path
       id="path2817"
       style="fill:none;stroke:#000000;stroke-width:0.75;stroke-linecap:butt;stroke-linejoin:miter;stroke-miterlimit:10;stroke-dasharray:none;stroke-opacity:1"
       d="M 238,46.75 L 238,37.75" /><path
       id="path2819"
       style="fill:none;stroke:#000000;stroke-width:0.75;stroke-linecap:butt;stroke-linejoin:miter;stroke-miterlimit:10;stroke-dasharray:none;stroke-opacity:1"
       d="M 247.25,42.25 L 247.25,37.75" /><path
       id="path2821"
       style="fill:none;stroke:#000000;stroke-width:0.75;stroke-linecap:butt;stroke-linejoin:miter;stroke-miterlimit:10;stroke-dasharray:none;stroke-opacity:1"
       d="M 256.25,42.25 L 256.25,37.75" /><path
       id="path2823"
       style="fill:none;stroke:#000000;stroke-width:0.75;stroke-linecap:butt;stroke-linejoin:miter;stroke-miterlimit:10;stroke-dasharray:none;stroke-opacity:1"
       d="M 265.25,42.25 L 265.25,37.75" /><path
       id="path2825"
       style="fill:none;stroke:#000000;stroke-width:0.75;stroke-linecap:butt;stroke-linejoin:miter;stroke-miterlimit:10;stroke-dasharray:none;stroke-opacity:1"
       d="M 274.5,42.25 L 274.5,37.75" /><path
       id="path2827"
       style="fill:none;stroke:#000000;stroke-width:0.75;stroke-linecap:butt;stroke-linejoin:miter;stroke-miterlimit:10;stroke-dasharray:none;stroke-opacity:1"
       d="M 283.5,42.25 L 283.5,37.75" /><path
       id="path2829"
       style="fill:none;stroke:#000000;stroke-width:0.75;stroke-linecap:butt;stroke-linejoin:miter;stroke-miterlimit:10;stroke-dasharray:none;stroke-opacity:1"
       d="M 292.5,42.25 L 292.5,37.75" /><path
       id="path2831"
       style="fill:none;stroke:#000000;stroke-width:0.75;stroke-linecap:butt;stroke-linejoin:miter;stroke-miterlimit:10;stroke-dasharray:none;stroke-opacity:1"
       d="M 301.5,42.25 L 301.5,37.75" /><path
       id="path2833"
       style="fill:none;stroke:#000000;stroke-width:0.75;stroke-linecap:butt;stroke-linejoin:miter;stroke-miterlimit:10;stroke-dasharray:none;stroke-opacity:1"
       d="M 310.75,42.25 L 310.75,37.75" /><path
       id="path2835"
       style="fill:none;stroke:#000000;stroke-width:0.75;stroke-linecap:butt;stroke-linejoin:miter;stroke-miterlimit:10;stroke-dasharray:none;stroke-opacity:1"
       d="M 319.75,42.25 L 319.75,37.75" /><path
       id="path2837"
       style="fill:none;stroke:#000000;stroke-width:0.75;stroke-linecap:butt;stroke-linejoin:miter;stroke-miterlimit:10;stroke-dasharray:none;stroke-opacity:1"
       d="M 328.75,46.75 L 328.75,37.75" /><path
       id="path2839"
       style="fill:none;stroke:#000000;stroke-width:0.75;stroke-linecap:butt;stroke-linejoin:miter;stroke-miterlimit:10;stroke-dasharray:none;stroke-opacity:1"
       d="M 338,42.25 L 338,37.75" /><path
       id="path2841"
       style="fill:none;stroke:#000000;stroke-width:0.75;stroke-linecap:butt;stroke-linejoin:miter;stroke-miterlimit:10;stroke-dasharray:none;stroke-opacity:1"
       d="M 347,42.25 L 347,37.75" /><path
       id="path2843"
       style="fill:none;stroke:#000000;stroke-width:0.75;stroke-linecap:butt;stroke-linejoin:miter;stroke-miterlimit:10;stroke-dasharray:none;stroke-opacity:1"
       d="M 356,42.25 L 356,37.75" /><path
       id="path2845"
       style="fill:none;stroke:#000000;stroke-width:0.75;stroke-linecap:butt;stroke-linejoin:miter;stroke-miterlimit:10;stroke-dasharray:none;stroke-opacity:1"
       d="M 365,42.25 L 365,37.75" /><path
       id="path2847"
       style="fill:none;stroke:#000000;stroke-width:0.75;stroke-linecap:butt;stroke-linejoin:miter;stroke-miterlimit:10;stroke-dasharray:none;stroke-opacity:1"
       d="M 374.25,42.25 L 374.25,37.75" /><path
       id="path2849"
       style="fill:none;stroke:#000000;stroke-width:0.75;stroke-linecap:butt;stroke-linejoin:miter;stroke-miterlimit:10;stroke-dasharray:none;stroke-opacity:1"
       d="M 383.25,42.25 L 383.25,37.75" /><path
       id="path2851"
       style="fill:none;stroke:#000000;stroke-width:0.75;stroke-linecap:butt;stroke-linejoin:miter;stroke-miterlimit:10;stroke-dasharray:none;stroke-opacity:1"
       d="M 392.25,42.25 L 392.25,37.75" /><path
       id="path2853"
       style="fill:none;stroke:#000000;stroke-width:0.75;stroke-linecap:butt;stroke-linejoin:miter;stroke-miterlimit:10;stroke-dasharray:none;stroke-opacity:1"
       d="M 401.5,42.25 L 401.5,37.75" /><path
       id="path2855"
       style="fill:none;stroke:#000000;stroke-width:0.75;stroke-linecap:butt;stroke-linejoin:miter;stroke-miterlimit:10;stroke-dasharray:none;stroke-opacity:1"
       d="M 410.5,42.25 L 410.5,37.75" /><path
       id="path2857"
       style="fill:none;stroke:#000000;stroke-width:0.75;stroke-linecap:butt;stroke-linejoin:miter;stroke-miterlimit:10;stroke-dasharray:none;stroke-opacity:1"
       d="M 419.5,46.75 L 419.5,37.75" /><path
       id="path2859"
       style="fill:none;stroke:#000000;stroke-width:0.75;stroke-linecap:butt;stroke-linejoin:miter;stroke-miterlimit:10;stroke-dasharray:none;stroke-opacity:1"
       d="M 428.5,42.25 L 428.5,37.75" /><path
       id="path2861"
       style="fill:none;stroke:#000000;stroke-width:0.75;stroke-linecap:butt;stroke-linejoin:miter;stroke-miterlimit:10;stroke-dasharray:none;stroke-opacity:1"
       d="M 437.75,42.25 L 437.75,37.75" /><path
       id="path2863"
       style="fill:none;stroke:#000000;stroke-width:0.75;stroke-linecap:butt;stroke-linejoin:miter;stroke-miterlimit:10;stroke-dasharray:none;stroke-opacity:1"
       d="M 446.75,42.25 L 446.75,37.75" /><path
       id="path2865"
       style="fill:none;stroke:#000000;stroke-width:0.75;stroke-linecap:butt;stroke-linejoin:miter;stroke-miterlimit:10;stroke-dasharray:none;stroke-opacity:1"
       d="M 455.75,42.25 L 455.75,37.75" /><path
       id="path2867"
       style="fill:none;stroke:#000000;stroke-width:0.75;stroke-linecap:butt;stroke-linejoin:miter;stroke-miterlimit:10;stroke-dasharray:none;stroke-opacity:1"
       d="M 465,42.25 L 465,37.75" /><path
       id="path2869"
       style="fill:none;stroke:#000000;stroke-width:0.75;stroke-linecap:butt;stroke-linejoin:miter;stroke-miterlimit:10;stroke-dasharray:none;stroke-opacity:1"
       d="M 474,42.25 L 474,37.75" /><path
       id="path2871"
       style="fill:none;stroke:#000000;stroke-width:0.75;stroke-linecap:butt;stroke-linejoin:miter;stroke-miterlimit:10;stroke-dasharray:none;stroke-opacity:1"
       d="M 483,42.25 L 483,37.75" /><path
       id="path2873"
       style="fill:none;stroke:#000000;stroke-width:0.75;stroke-linecap:butt;stroke-linejoin:miter;stroke-miterlimit:10;stroke-dasharray:none;stroke-opacity:1"
       d="M 492,42.25 L 492,37.75" /><path
       id="path2875"
       style="fill:none;stroke:#000000;stroke-width:0.75;stroke-linecap:butt;stroke-linejoin:miter;stroke-miterlimit:10;stroke-dasharray:none;stroke-opacity:1"
       d="M 501.25,42.25 L 501.25,37.75" /><path
       id="path2877"
       style="fill:none;stroke:#000000;stroke-width:0.75;stroke-linecap:butt;stroke-linejoin:miter;stroke-miterlimit:10;stroke-dasharray:none;stroke-opacity:1"
       d="M 510.25,46.75 L 510.25,37.75" /><g
       id="g2879"><text
         id="text2881"
         transform="matrix(1,0,0,-1,53,24)"><tspan
           id="tspan2883"
           sodipodi:role="line"
           y="0"
           x="0 91.250114 181.25021 272.00031 362.75043 453.50052"
           style="font-size:13.85830021px;font-variant:normal;font-weight:bold;writing-mode:lr-tb;fill:#000000;fill-opacity:1;fill-rule:nonzero;stroke:none;font-family:Helvetica;-inkscape-font-specification:Helvetica-Bold">012345</tspan></text>
</g><path
       id="path2885"
       style="fill:none;stroke:#000000;stroke-width:0.75;stroke-linecap:butt;stroke-linejoin:miter;stroke-miterlimit:10;stroke-dasharray:none;stroke-opacity:1"
       d="M 56.75,37.75 L 56.75,340.25" /><g
       id="g2887"
       transform="matrix(1.0501917,0,0,1.0501917,-4.2073685,-9.3858837)"><text
         id="text2889"
         transform="matrix(0,1,1,0,24.5,150.5)"><tspan
           id="tspan2891"
           sodipodi:role="line"
           y="0"
           x="0 10.005692 17.710907 25.416122 33.121338 41.588757 46.203571 53.908787 62.376209 70.081421"
           style="font-size:13.85830021px;font-variant:normal;font-weight:bold;writing-mode:lr-tb;fill:#000000;fill-opacity:1;fill-rule:nonzero;stroke:none;font-family:Helvetica;-inkscape-font-specification:Helvetica-Bold">Acceptance</tspan></text>
</g><path
       id="path2893"
       style="fill:none;stroke:#000000;stroke-width:0.75;stroke-linecap:butt;stroke-linejoin:miter;stroke-miterlimit:10;stroke-dasharray:none;stroke-opacity:1"
       d="M 70.25,37.75 L 56.75,37.75" /><path
       id="path2895"
       style="fill:none;stroke:#000000;stroke-width:0.75;stroke-linecap:butt;stroke-linejoin:miter;stroke-miterlimit:10;stroke-dasharray:none;stroke-opacity:1"
       d="M 63.5,43.75 L 56.75,43.75" /><path
       id="path2897"
       style="fill:none;stroke:#000000;stroke-width:0.75;stroke-linecap:butt;stroke-linejoin:miter;stroke-miterlimit:10;stroke-dasharray:none;stroke-opacity:1"
       d="M 63.5,50 L 56.75,50" /><path
       id="path2899"
       style="fill:none;stroke:#000000;stroke-width:0.75;stroke-linecap:butt;stroke-linejoin:miter;stroke-miterlimit:10;stroke-dasharray:none;stroke-opacity:1"
       d="M 63.5,56 L 56.75,56" /><path
       id="path2901"
       style="fill:none;stroke:#000000;stroke-width:0.75;stroke-linecap:butt;stroke-linejoin:miter;stroke-miterlimit:10;stroke-dasharray:none;stroke-opacity:1"
       d="M 63.5,62 L 56.75,62" /><path
       id="path2903"
       style="fill:none;stroke:#000000;stroke-width:0.75;stroke-linecap:butt;stroke-linejoin:miter;stroke-miterlimit:10;stroke-dasharray:none;stroke-opacity:1"
       d="M 63.5,68 L 56.75,68" /><path
       id="path2905"
       style="fill:none;stroke:#000000;stroke-width:0.75;stroke-linecap:butt;stroke-linejoin:miter;stroke-miterlimit:10;stroke-dasharray:none;stroke-opacity:1"
       d="M 63.5,74 L 56.75,74" /><path
       id="path2907"
       style="fill:none;stroke:#000000;stroke-width:0.75;stroke-linecap:butt;stroke-linejoin:miter;stroke-miterlimit:10;stroke-dasharray:none;stroke-opacity:1"
       d="M 63.5,80.25 L 56.75,80.25" /><path
       id="path2909"
       style="fill:none;stroke:#000000;stroke-width:0.75;stroke-linecap:butt;stroke-linejoin:miter;stroke-miterlimit:10;stroke-dasharray:none;stroke-opacity:1"
       d="M 63.5,86.25 L 56.75,86.25" /><path
       id="path2911"
       style="fill:none;stroke:#000000;stroke-width:0.75;stroke-linecap:butt;stroke-linejoin:miter;stroke-miterlimit:10;stroke-dasharray:none;stroke-opacity:1"
       d="M 63.5,92.25 L 56.75,92.25" /><path
       id="path2913"
       style="fill:none;stroke:#000000;stroke-width:0.75;stroke-linecap:butt;stroke-linejoin:miter;stroke-miterlimit:10;stroke-dasharray:none;stroke-opacity:1"
       d="M 70.25,98.25 L 56.75,98.25" /><path
       id="path2915"
       style="fill:none;stroke:#000000;stroke-width:0.75;stroke-linecap:butt;stroke-linejoin:miter;stroke-miterlimit:10;stroke-dasharray:none;stroke-opacity:1"
       d="M 63.5,104.25 L 56.75,104.25" /><path
       id="path2917"
       style="fill:none;stroke:#000000;stroke-width:0.75;stroke-linecap:butt;stroke-linejoin:miter;stroke-miterlimit:10;stroke-dasharray:none;stroke-opacity:1"
       d="M 63.5,110.25 L 56.75,110.25" /><path
       id="path2919"
       style="fill:none;stroke:#000000;stroke-width:0.75;stroke-linecap:butt;stroke-linejoin:miter;stroke-miterlimit:10;stroke-dasharray:none;stroke-opacity:1"
       d="M 63.5,116.5 L 56.75,116.5" /><path
       id="path2921"
       style="fill:none;stroke:#000000;stroke-width:0.75;stroke-linecap:butt;stroke-linejoin:miter;stroke-miterlimit:10;stroke-dasharray:none;stroke-opacity:1"
       d="M 63.5,122.5 L 56.75,122.5" /><path
       id="path2923"
       style="fill:none;stroke:#000000;stroke-width:0.75;stroke-linecap:butt;stroke-linejoin:miter;stroke-miterlimit:10;stroke-dasharray:none;stroke-opacity:1"
       d="M 63.5,128.5 L 56.75,128.5" /><path
       id="path2925"
       style="fill:none;stroke:#000000;stroke-width:0.75;stroke-linecap:butt;stroke-linejoin:miter;stroke-miterlimit:10;stroke-dasharray:none;stroke-opacity:1"
       d="M 63.5,134.5 L 56.75,134.5" /><path
       id="path2927"
       style="fill:none;stroke:#000000;stroke-width:0.75;stroke-linecap:butt;stroke-linejoin:miter;stroke-miterlimit:10;stroke-dasharray:none;stroke-opacity:1"
       d="M 63.5,140.5 L 56.75,140.5" /><path
       id="path2929"
       style="fill:none;stroke:#000000;stroke-width:0.75;stroke-linecap:butt;stroke-linejoin:miter;stroke-miterlimit:10;stroke-dasharray:none;stroke-opacity:1"
       d="M 63.5,146.75 L 56.75,146.75" /><path
       id="path2931"
       style="fill:none;stroke:#000000;stroke-width:0.75;stroke-linecap:butt;stroke-linejoin:miter;stroke-miterlimit:10;stroke-dasharray:none;stroke-opacity:1"
       d="M 63.5,152.75 L 56.75,152.75" /><path
       id="path2933"
       style="fill:none;stroke:#000000;stroke-width:0.75;stroke-linecap:butt;stroke-linejoin:miter;stroke-miterlimit:10;stroke-dasharray:none;stroke-opacity:1"
       d="M 70.25,158.75 L 56.75,158.75" /><path
       id="path2935"
       style="fill:none;stroke:#000000;stroke-width:0.75;stroke-linecap:butt;stroke-linejoin:miter;stroke-miterlimit:10;stroke-dasharray:none;stroke-opacity:1"
       d="M 63.5,164.75 L 56.75,164.75" /><path
       id="path2937"
       style="fill:none;stroke:#000000;stroke-width:0.75;stroke-linecap:butt;stroke-linejoin:miter;stroke-miterlimit:10;stroke-dasharray:none;stroke-opacity:1"
       d="M 63.5,170.75 L 56.75,170.75" /><path
       id="path2939"
       style="fill:none;stroke:#000000;stroke-width:0.75;stroke-linecap:butt;stroke-linejoin:miter;stroke-miterlimit:10;stroke-dasharray:none;stroke-opacity:1"
       d="M 63.5,177 L 56.75,177" /><path
       id="path2941"
       style="fill:none;stroke:#000000;stroke-width:0.75;stroke-linecap:butt;stroke-linejoin:miter;stroke-miterlimit:10;stroke-dasharray:none;stroke-opacity:1"
       d="M 63.5,183 L 56.75,183" /><path
       id="path2943"
       style="fill:none;stroke:#000000;stroke-width:0.75;stroke-linecap:butt;stroke-linejoin:miter;stroke-miterlimit:10;stroke-dasharray:none;stroke-opacity:1"
       d="M 63.5,189 L 56.75,189" /><path
       id="path2945"
       style="fill:none;stroke:#000000;stroke-width:0.75;stroke-linecap:butt;stroke-linejoin:miter;stroke-miterlimit:10;stroke-dasharray:none;stroke-opacity:1"
       d="M 63.5,195 L 56.75,195" /><path
       id="path2947"
       style="fill:none;stroke:#000000;stroke-width:0.75;stroke-linecap:butt;stroke-linejoin:miter;stroke-miterlimit:10;stroke-dasharray:none;stroke-opacity:1"
       d="M 63.5,201 L 56.75,201" /><path
       id="path2949"
       style="fill:none;stroke:#000000;stroke-width:0.75;stroke-linecap:butt;stroke-linejoin:miter;stroke-miterlimit:10;stroke-dasharray:none;stroke-opacity:1"
       d="M 63.5,207 L 56.75,207" /><path
       id="path2951"
       style="fill:none;stroke:#000000;stroke-width:0.75;stroke-linecap:butt;stroke-linejoin:miter;stroke-miterlimit:10;stroke-dasharray:none;stroke-opacity:1"
       d="M 63.5,213.25 L 56.75,213.25" /><path
       id="path2953"
       style="fill:none;stroke:#000000;stroke-width:0.75;stroke-linecap:butt;stroke-linejoin:miter;stroke-miterlimit:10;stroke-dasharray:none;stroke-opacity:1"
       d="M 70.25,219.25 L 56.75,219.25" /><path
       id="path2955"
       style="fill:none;stroke:#000000;stroke-width:0.75;stroke-linecap:butt;stroke-linejoin:miter;stroke-miterlimit:10;stroke-dasharray:none;stroke-opacity:1"
       d="M 63.5,225.25 L 56.75,225.25" /><path
       id="path2957"
       style="fill:none;stroke:#000000;stroke-width:0.75;stroke-linecap:butt;stroke-linejoin:miter;stroke-miterlimit:10;stroke-dasharray:none;stroke-opacity:1"
       d="M 63.5,231.25 L 56.75,231.25" /><path
       id="path2959"
       style="fill:none;stroke:#000000;stroke-width:0.75;stroke-linecap:butt;stroke-linejoin:miter;stroke-miterlimit:10;stroke-dasharray:none;stroke-opacity:1"
       d="M 63.5,237.25 L 56.75,237.25" /><path
       id="path2961"
       style="fill:none;stroke:#000000;stroke-width:0.75;stroke-linecap:butt;stroke-linejoin:miter;stroke-miterlimit:10;stroke-dasharray:none;stroke-opacity:1"
       d="M 63.5,243.5 L 56.75,243.5" /><path
       id="path2963"
       style="fill:none;stroke:#000000;stroke-width:0.75;stroke-linecap:butt;stroke-linejoin:miter;stroke-miterlimit:10;stroke-dasharray:none;stroke-opacity:1"
       d="M 63.5,249.5 L 56.75,249.5" /><path
       id="path2965"
       style="fill:none;stroke:#000000;stroke-width:0.75;stroke-linecap:butt;stroke-linejoin:miter;stroke-miterlimit:10;stroke-dasharray:none;stroke-opacity:1"
       d="M 63.5,255.5 L 56.75,255.5" /><path
       id="path2967"
       style="fill:none;stroke:#000000;stroke-width:0.75;stroke-linecap:butt;stroke-linejoin:miter;stroke-miterlimit:10;stroke-dasharray:none;stroke-opacity:1"
       d="M 63.5,261.5 L 56.75,261.5" /><path
       id="path2969"
       style="fill:none;stroke:#000000;stroke-width:0.75;stroke-linecap:butt;stroke-linejoin:miter;stroke-miterlimit:10;stroke-dasharray:none;stroke-opacity:1"
       d="M 63.5,267.5 L 56.75,267.5" /><path
       id="path2971"
       style="fill:none;stroke:#000000;stroke-width:0.75;stroke-linecap:butt;stroke-linejoin:miter;stroke-miterlimit:10;stroke-dasharray:none;stroke-opacity:1"
       d="M 63.5,273.75 L 56.75,273.75" /><path
       id="path2973"
       style="fill:none;stroke:#000000;stroke-width:0.75;stroke-linecap:butt;stroke-linejoin:miter;stroke-miterlimit:10;stroke-dasharray:none;stroke-opacity:1"
       d="M 70.25,279.75 L 56.75,279.75" /><path
       id="path2975"
       style="fill:none;stroke:#000000;stroke-width:0.75;stroke-linecap:butt;stroke-linejoin:miter;stroke-miterlimit:10;stroke-dasharray:none;stroke-opacity:1"
       d="M 63.5,285.75 L 56.75,285.75" /><path
       id="path2977"
       style="fill:none;stroke:#000000;stroke-width:0.75;stroke-linecap:butt;stroke-linejoin:miter;stroke-miterlimit:10;stroke-dasharray:none;stroke-opacity:1"
       d="M 63.5,291.75 L 56.75,291.75" /><path
       id="path2979"
       style="fill:none;stroke:#000000;stroke-width:0.75;stroke-linecap:butt;stroke-linejoin:miter;stroke-miterlimit:10;stroke-dasharray:none;stroke-opacity:1"
       d="M 63.5,297.75 L 56.75,297.75" /><path
       id="path2981"
       style="fill:none;stroke:#000000;stroke-width:0.75;stroke-linecap:butt;stroke-linejoin:miter;stroke-miterlimit:10;stroke-dasharray:none;stroke-opacity:1"
       d="M 63.5,303.75 L 56.75,303.75" /><path
       id="path2983"
       style="fill:none;stroke:#000000;stroke-width:0.75;stroke-linecap:butt;stroke-linejoin:miter;stroke-miterlimit:10;stroke-dasharray:none;stroke-opacity:1"
       d="M 63.5,310 L 56.75,310" /><path
       id="path2985"
       style="fill:none;stroke:#000000;stroke-width:0.75;stroke-linecap:butt;stroke-linejoin:miter;stroke-miterlimit:10;stroke-dasharray:none;stroke-opacity:1"
       d="M 63.5,316 L 56.75,316" /><path
       id="path2987"
       style="fill:none;stroke:#000000;stroke-width:0.75;stroke-linecap:butt;stroke-linejoin:miter;stroke-miterlimit:10;stroke-dasharray:none;stroke-opacity:1"
       d="M 63.5,322 L 56.75,322" /><path
       id="path2989"
       style="fill:none;stroke:#000000;stroke-width:0.75;stroke-linecap:butt;stroke-linejoin:miter;stroke-miterlimit:10;stroke-dasharray:none;stroke-opacity:1"
       d="M 63.5,328 L 56.75,328" /><path
       id="path2991"
       style="fill:none;stroke:#000000;stroke-width:0.75;stroke-linecap:butt;stroke-linejoin:miter;stroke-miterlimit:10;stroke-dasharray:none;stroke-opacity:1"
       d="M 63.5,334 L 56.75,334" /><path
       id="path2993"
       style="fill:none;stroke:#000000;stroke-width:0.75;stroke-linecap:butt;stroke-linejoin:miter;stroke-miterlimit:10;stroke-dasharray:none;stroke-opacity:1"
       d="M 70.25,340.25 L 56.75,340.25" /><path
       id="path2995"
       style="fill:none;stroke:#000000;stroke-width:0.75;stroke-linecap:butt;stroke-linejoin:miter;stroke-miterlimit:10;stroke-dasharray:none;stroke-opacity:1"
       d="M 70.25,340.25 L 56.75,340.25" /><g
       id="g2997"><text
         id="text2999"
         transform="matrix(1,0,0,-1,46,31.5)"><tspan
           id="tspan3001"
           y="0"
           x="0"
           style="font-size:13.85830021px;font-variant:normal;font-weight:bold;writing-mode:lr-tb;fill:#000000;fill-opacity:1;fill-rule:nonzero;stroke:none;font-family:Helvetica;-inkscape-font-specification:Helvetica-Bold">0</tspan><tspan
           id="tspan3003"
           sodipodi:role="line"
           y="-60.5"
           x="-9.5 -1.7947851 2.0578222"
           style="font-size:13.85830021px;font-variant:normal;font-weight:bold;writing-mode:lr-tb;fill:#000000;fill-opacity:1;fill-rule:nonzero;stroke:none;font-family:Helvetica;-inkscape-font-specification:Helvetica-Bold">0.1</tspan><tspan
           id="tspan3005"
           sodipodi:role="line"
           y="-121"
           x="-11.25 -3.5447853 0.3078222"
           style="font-size:13.85830021px;font-variant:normal;font-weight:bold;writing-mode:lr-tb;fill:#000000;fill-opacity:1;fill-rule:nonzero;stroke:none;font-family:Helvetica;-inkscape-font-specification:Helvetica-Bold">0.2</tspan><tspan
           id="tspan3007"
           sodipodi:role="line"
           y="-181.5"
           x="-11.25 -3.5447853 0.3078222"
           style="font-size:13.85830021px;font-variant:normal;font-weight:bold;writing-mode:lr-tb;fill:#000000;fill-opacity:1;fill-rule:nonzero;stroke:none;font-family:Helvetica;-inkscape-font-specification:Helvetica-Bold">0.3</tspan><tspan
           id="tspan3009"
           sodipodi:role="line"
           y="-242"
           x="-11.25 -3.5447853 0.3078222"
           style="font-size:13.85830021px;font-variant:normal;font-weight:bold;writing-mode:lr-tb;fill:#000000;fill-opacity:1;fill-rule:nonzero;stroke:none;font-family:Helvetica;-inkscape-font-specification:Helvetica-Bold">0.4</tspan><tspan
           id="tspan3011"
           sodipodi:role="line"
           y="-302.25"
           x="-11.25 -3.5447853 0.3078222"
           style="font-size:13.85830021px;font-variant:normal;font-weight:bold;writing-mode:lr-tb;fill:#000000;fill-opacity:1;fill-rule:nonzero;stroke:none;font-family:Helvetica;-inkscape-font-specification:Helvetica-Bold">0.5</tspan></text>
</g><path
       id="path3013"
       style="fill:none;stroke:#000000;stroke-width:1.5;stroke-linecap:butt;stroke-linejoin:miter;stroke-miterlimit:10;stroke-dasharray:5, 5;stroke-dashoffset:0;stroke-opacity:1"
       d="M 102,143.75 L 147.5,121.25 L 238,116.75 L 328.75,116.25 L 419.5,109" /><path
       id="path3015"
       style="fill:#000000;fill-opacity:1;fill-rule:evenodd;stroke:none"
       d="M 419.75,109 C 419.75,109.138 419.638,109.25 419.5,109.25 C 419.362,109.25 419.25,109.138 419.25,109 C 419.25,108.862 419.362,108.75 419.5,108.75 C 419.638,108.75 419.75,108.862 419.75,109" /><path
       id="path3017"
       style="fill:#000000;fill-opacity:1;fill-rule:evenodd;stroke:none"
       d="M 329,116.25 C 329,116.388 328.888,116.5 328.75,116.5 C 328.612,116.5 328.5,116.388 328.5,116.25 C 328.5,116.112 328.612,116 328.75,116 C 328.888,116 329,116.112 329,116.25" /><path
       id="path3019"
       style="fill:#000000;fill-opacity:1;fill-rule:evenodd;stroke:none"
       d="M 238.25,116.75 C 238.25,116.888 238.138,117 238,117 C 237.862,117 237.75,116.888 237.75,116.75 C 237.75,116.612 237.862,116.5 238,116.5 C 238.138,116.5 238.25,116.612 238.25,116.75" /><path
       id="path3021"
       style="fill:#000000;fill-opacity:1;fill-rule:evenodd;stroke:none"
       d="M 147.75,121.25 C 147.75,121.388 147.638,121.5 147.5,121.5 C 147.362,121.5 147.25,121.388 147.25,121.25 C 147.25,121.112 147.362,121 147.5,121 C 147.638,121 147.75,121.112 147.75,121.25" /><path
       id="path3023"
       style="fill:#000000;fill-opacity:1;fill-rule:evenodd;stroke:none"
       d="M 102.25,143.75 C 102.25,143.888 102.138,144 102,144 C 101.862,144 101.75,143.888 101.75,143.75 C 101.75,143.612 101.862,143.5 102,143.5 C 102.138,143.5 102.25,143.612 102.25,143.75" /><path
       id="path3025"
       style="fill:none;stroke:#ff0000;stroke-width:1.5;stroke-linecap:butt;stroke-linejoin:miter;stroke-miterlimit:10;stroke-dasharray:5, 3, 1, 3, 1, 3;stroke-dashoffset:0;stroke-opacity:1"
       d="M 102,222.25 L 147.5,198.5 L 238,185 L 328.75,182.25 L 419.5,176.25" /><path
       id="path3027"
       style="fill:#000000;fill-opacity:1;fill-rule:evenodd;stroke:none"
       d="M 419.75,176.25 C 419.75,176.388 419.638,176.5 419.5,176.5 C 419.362,176.5 419.25,176.388 419.25,176.25 C 419.25,176.112 419.362,176 419.5,176 C 419.638,176 419.75,176.112 419.75,176.25" /><path
       id="path3029"
       style="fill:#000000;fill-opacity:1;fill-rule:evenodd;stroke:none"
       d="M 329,182.25 C 329,182.388 328.888,182.5 328.75,182.5 C 328.612,182.5 328.5,182.388 328.5,182.25 C 328.5,182.112 328.612,182 328.75,182 C 328.888,182 329,182.112 329,182.25" /><path
       id="path3031"
       style="fill:#000000;fill-opacity:1;fill-rule:evenodd;stroke:none"
       d="M 238.25,185 C 238.25,185.138 238.138,185.25 238,185.25 C 237.862,185.25 237.75,185.138 237.75,185 C 237.75,184.862 237.862,184.75 238,184.75 C 238.138,184.75 238.25,184.862 238.25,185" /><path
       id="path3033"
       style="fill:#000000;fill-opacity:1;fill-rule:evenodd;stroke:none"
       d="M 147.75,198.5 C 147.75,198.638 147.638,198.75 147.5,198.75 C 147.362,198.75 147.25,198.638 147.25,198.5 C 147.25,198.362 147.362,198.25 147.5,198.25 C 147.638,198.25 147.75,198.362 147.75,198.5" /><path
       id="path3035"
       style="fill:#000000;fill-opacity:1;fill-rule:evenodd;stroke:none"
       d="M 102.25,222.25 C 102.25,222.388 102.138,222.5 102,222.5 C 101.862,222.5 101.75,222.388 101.75,222.25 C 101.75,222.112 101.862,222 102,222 C 102.138,222 102.25,222.112 102.25,222.25" /><path
       id="path3037"
       style="fill:none;stroke:#008000;stroke-width:1.5;stroke-linecap:butt;stroke-linejoin:miter;stroke-miterlimit:10;stroke-dasharray:20, 5;stroke-dashoffset:0;stroke-opacity:1"
       d="M 102,276 L 147.5,234.75 L 238,213.5 L 328.75,211.5 L 419.5,207" /><path
       id="path3039"
       style="fill:#000000;fill-opacity:1;fill-rule:evenodd;stroke:none"
       d="M 419.75,207 C 419.75,207.138 419.638,207.25 419.5,207.25 C 419.362,207.25 419.25,207.138 419.25,207 C 419.25,206.862 419.362,206.75 419.5,206.75 C 419.638,206.75 419.75,206.862 419.75,207" /><path
       id="path3041"
       style="fill:#000000;fill-opacity:1;fill-rule:evenodd;stroke:none"
       d="M 329,211.5 C 329,211.638 328.888,211.75 328.75,211.75 C 328.612,211.75 328.5,211.638 328.5,211.5 C 328.5,211.362 328.612,211.25 328.75,211.25 C 328.888,211.25 329,211.362 329,211.5" /><path
       id="path3043"
       style="fill:#000000;fill-opacity:1;fill-rule:evenodd;stroke:none"
       d="M 238.25,213.5 C 238.25,213.638 238.138,213.75 238,213.75 C 237.862,213.75 237.75,213.638 237.75,213.5 C 237.75,213.362 237.862,213.25 238,213.25 C 238.138,213.25 238.25,213.362 238.25,213.5" /><path
       id="path3045"
       style="fill:#000000;fill-opacity:1;fill-rule:evenodd;stroke:none"
       d="M 147.75,234.75 C 147.75,234.888 147.638,235 147.5,235 C 147.362,235 147.25,234.888 147.25,234.75 C 147.25,234.612 147.362,234.5 147.5,234.5 C 147.638,234.5 147.75,234.612 147.75,234.75" /><path
       id="path3047"
       style="fill:#000000;fill-opacity:1;fill-rule:evenodd;stroke:none"
       d="M 102.25,276 C 102.25,276.138 102.138,276.25 102,276.25 C 101.862,276.25 101.75,276.138 101.75,276 C 101.75,275.862 101.862,275.75 102,275.75 C 102.138,275.75 102.25,275.862 102.25,276" /><path
       id="path3049"
       style="fill:none;stroke:#0000ff;stroke-width:1.60000002;stroke-linecap:butt;stroke-linejoin:miter;stroke-miterlimit:10;stroke-dasharray:none;stroke-opacity:1"
       d="M 102,315.75 L 147.5,267.25 L 238,243.5 L 328.75,231.5 L 419.5,224.5" /><path
       id="path3051"
       style="fill:#000000;fill-opacity:1;fill-rule:evenodd;stroke:none"
       d="M 419.75,224.5 C 419.75,224.638 419.638,224.75 419.5,224.75 C 419.362,224.75 419.25,224.638 419.25,224.5 C 419.25,224.362 419.362,224.25 419.5,224.25 C 419.638,224.25 419.75,224.362 419.75,224.5" /><path
       id="path3053"
       style="fill:#000000;fill-opacity:1;fill-rule:evenodd;stroke:none"
       d="M 329,231.5 C 329,231.638 328.888,231.75 328.75,231.75 C 328.612,231.75 328.5,231.638 328.5,231.5 C 328.5,231.362 328.612,231.25 328.75,231.25 C 328.888,231.25 329,231.362 329,231.5" /><path
       id="path3055"
       style="fill:#000000;fill-opacity:1;fill-rule:evenodd;stroke:none"
       d="M 238.25,243.5 C 238.25,243.638 238.138,243.75 238,243.75 C 237.862,243.75 237.75,243.638 237.75,243.5 C 237.75,243.362 237.862,243.25 238,243.25 C 238.138,243.25 238.25,243.362 238.25,243.5" /><path
       id="path3057"
       style="fill:#000000;fill-opacity:1;fill-rule:evenodd;stroke:none"
       d="M 147.75,267.25 C 147.75,267.388 147.638,267.5 147.5,267.5 C 147.362,267.5 147.25,267.388 147.25,267.25 C 147.25,267.112 147.362,267 147.5,267 C 147.638,267 147.75,267.112 147.75,267.25" /><path
       id="path3059"
       style="fill:#000000;fill-opacity:1;fill-rule:evenodd;stroke:none"
       d="M 102.25,315.75 C 102.25,315.888 102.138,316 102,316 C 101.862,316 101.75,315.888 101.75,315.75 C 101.75,315.612 101.862,315.5 102,315.5 C 102.138,315.5 102.25,315.612 102.25,315.75" /><path
       id="path3063"
       style="fill:#ffffff;fill-opacity:1;fill-rule:evenodd;stroke:none"
       d="M 423.25,242 L 423.25,239.25 L 507,239.25 L 507,332.5 L 504.5,332.5 L 504.5,242" /><text
       transform="scale(1,-1)"
       id="text3077"
       x="423.25"
       y="-323.75"><tspan
         style="font-size:10.70860004px;font-variant:normal;font-weight:bold;writing-mode:lr-tb;fill:#000000;fill-opacity:1;fill-rule:nonzero;stroke:none;font-family:Helvetica;-inkscape-font-specification:Helvetica-Bold"
         x="423.25"
         y="-323.75"
         id="tspan3079"> </tspan><tspan
         style="font-size:10.70860004px;font-variant:normal;font-weight:bold;writing-mode:lr-tb;fill:#000000;fill-opacity:1;fill-rule:nonzero;stroke:none;font-family:Helvetica;-inkscape-font-specification:Helvetica-Bold"
         x="461.75 467.70398 473.65796"
         y="-303"
         sodipodi:role="line"
         id="tspan3081">120</tspan></text>
<path
       id="path3083"
       style="fill:none;stroke:#0000ff;stroke-width:1.5;stroke-linecap:butt;stroke-linejoin:miter;stroke-miterlimit:10;stroke-dasharray:none;stroke-opacity:1"
       d="M 426,308 L 455.75,308" /><g
       id="g3085"><text
         id="text3087"
         transform="matrix(1,0,0,-1,461.75,284)"><tspan
           id="tspan3089"
           sodipodi:role="line"
           y="0"
           x="0 5.9539814 11.907963"
           style="font-size:10.70860004px;font-variant:normal;font-weight:bold;writing-mode:lr-tb;fill:#000000;fill-opacity:1;fill-rule:nonzero;stroke:none;font-family:Helvetica;-inkscape-font-specification:Helvetica-Bold">100</tspan></text>
</g><path
       id="path3091"
       style="fill:none;stroke:#008000;stroke-width:1.5;stroke-linecap:butt;stroke-linejoin:miter;stroke-miterlimit:10;stroke-dasharray:20, 5;stroke-dashoffset:0;stroke-opacity:1"
       d="M 426,289.25 L 455.75,289.25" /><g
       id="g3093"><text
         id="text3095"
         transform="matrix(1,0,0,-1,461.75,265.25)"><tspan
           id="tspan3097"
           sodipodi:role="line"
           y="0"
           x="0 5.9539814"
           style="font-size:10.70860004px;font-variant:normal;font-weight:bold;writing-mode:lr-tb;fill:#000000;fill-opacity:1;fill-rule:nonzero;stroke:none;font-family:Helvetica;-inkscape-font-specification:Helvetica-Bold">80</tspan></text>
</g><path
       id="path3099"
       style="fill:none;stroke:#ff0000;stroke-width:1.5;stroke-linecap:butt;stroke-linejoin:miter;stroke-miterlimit:10;stroke-dasharray:5, 3, 1, 3, 1, 3;stroke-dashoffset:0;stroke-opacity:1"
       d="M 426,270.25 L 455.75,270.25" /><g
       id="g3101"><text
         id="text3103"
         transform="matrix(1,0,0,-1,461.75,246.25)"><tspan
           id="tspan3105"
           sodipodi:role="line"
           y="0"
           x="0 5.9539814"
           style="font-size:10.70860004px;font-variant:normal;font-weight:bold;writing-mode:lr-tb;fill:#000000;fill-opacity:1;fill-rule:nonzero;stroke:none;font-family:Helvetica;-inkscape-font-specification:Helvetica-Bold">60</tspan></text>
</g><path
       id="path3107"
       style="fill:none;stroke:#000000;stroke-width:1.5;stroke-linecap:butt;stroke-linejoin:miter;stroke-miterlimit:10;stroke-dasharray:5, 5;stroke-dashoffset:0;stroke-opacity:1"
       d="M 426,251.25 L 455.75,251.25" /><g
       id="g3313"
       transform="matrix(1.0501917,0,0,1.0501917,-20.331766,26.404694)"><text
         y="22.5"
         x="274"
         transform="scale(1,-1)"
         id="text3287"><tspan
           y="22.5"
           x="274"
           style="font-size:13.85830021px;font-variant:normal;font-weight:bold;writing-mode:lr-tb;fill:#000000;fill-opacity:1;fill-rule:nonzero;stroke:none;font-family:Helvetica;-inkscape-font-specification:Helvetica-Bold"
           sodipodi:role="line"
           id="tspan3289">  (GeV/c  )</tspan></text>
<text
         y="25.75"
         x="269"
         transform="scale(1,-1)"
         id="text3291"><tspan
           style="font-size:9.44882011px;font-variant:normal;font-weight:bold;writing-mode:lr-tb;fill:#000000;fill-opacity:1;fill-rule:nonzero;stroke:none;font-family:Helvetica;-inkscape-font-specification:Helvetica-Bold"
           x="269"
           y="25.75"
           id="tspan3293">a</tspan></text>
<text
         y="22.5"
         x="257"
         transform="scale(1,-1)"
         id="text3295"><tspan
           style="font-size:13.85830021px;font-variant:normal;font-weight:bold;writing-mode:lr-tb;fill:#000000;fill-opacity:1;fill-rule:nonzero;stroke:none;font-family:Helvetica;-inkscape-font-specification:Helvetica-Bold"
           x="257"
           y="22.5"
           id="tspan3297">m</tspan></text>
<text
         style="font-size:7.65490532px"
         id="text3305"
         transform="scale(1,-1)"
         x="274.74237"
         y="28.583549"><tspan
           id="tspan3307"
           y="28.583549"
           x="274.74237"
           style="font-size:6.02748537px;font-variant:normal;font-weight:bold;writing-mode:lr-tb;fill:#000000;fill-opacity:1;fill-rule:nonzero;stroke:none;font-family:Helvetica;-inkscape-font-specification:Helvetica-Bold">1</tspan></text>
<text
         y="17.313673"
         x="327.32675"
         transform="scale(1,-1)"
         id="text3309"
         style="font-size:11.3561573px"><tspan
           style="font-size:8.94185829px;font-variant:normal;font-weight:bold;writing-mode:lr-tb;fill:#000000;fill-opacity:1;fill-rule:nonzero;stroke:none;font-family:Helvetica;-inkscape-font-specification:Helvetica-Bold"
           x="327.32675"
           y="17.313673"
           id="tspan3311">2</tspan></text>
</g><text
       xml:space="preserve"
       style="font-size:21.85494614px;font-style:normal;font-variant:normal;font-weight:normal;font-stretch:normal;text-align:start;line-height:125%;writing-mode:lr-tb;text-anchor:start;fill:#000000;fill-opacity:1;stroke:none;stroke-width:1px;stroke-linecap:butt;stroke-linejoin:miter;stroke-opacity:1;font-family:Bitstream Vera Sans;-inkscape-font-specification:Bitstream Vera Sans"
       x="465.3078"
       y="-56.81863"
       id="text48807"
       sodipodi:linespacing="125%"
       transform="scale(1,-1)"><tspan
         sodipodi:role="line"
         id="tspan48809"
         x="465.3078"
         y="-56.81863">(b)</tspan></text>
</g></svg>