<?xml version="1.0" encoding="UTF-8" standalone="no"?>
<!-- Created with Inkscape (http://www.inkscape.org/) -->
<svg
   xmlns:dc="http://purl.org/dc/elements/1.1/"
   xmlns:cc="http://creativecommons.org/ns#"
   xmlns:rdf="http://www.w3.org/1999/02/22-rdf-syntax-ns#"
   xmlns:svg="http://www.w3.org/2000/svg"
   xmlns="http://www.w3.org/2000/svg"
   xmlns:sodipodi="http://sodipodi.sourceforge.net/DTD/sodipodi-0.dtd"
   xmlns:inkscape="http://www.inkscape.org/namespaces/inkscape"
   id="svg4577"
   sodipodi:version="0.32"
   inkscape:version="0.46"
   width="623.39423"
   height="431.44031"
   xml:space="preserve"
   sodipodi:docname="fourmuon_invariant_mass_new.svg"
   inkscape:output_extension="org.inkscape.output.svg.inkscape"
   version="1.0"><metadata
     id="metadata4582"><rdf:RDF><cc:Work
         rdf:about=""><dc:format>image/svg+xml</dc:format><dc:type
           rdf:resource="http://purl.org/dc/dcmitype/StillImage" /></cc:Work></rdf:RDF></metadata><defs
     id="defs4580"><inkscape:perspective
       sodipodi:type="inkscape:persp3d"
       inkscape:vp_x="0 : 526.18109 : 1"
       inkscape:vp_y="0 : 1000 : 0"
       inkscape:vp_z="744.09448 : 526.18109 : 1"
       inkscape:persp3d-origin="372.04724 : 350.78739 : 1"
       id="perspective4584" /></defs><sodipodi:namedview
     inkscape:window-height="846"
     inkscape:window-width="1434"
     inkscape:pageshadow="2"
     inkscape:pageopacity="0.0"
     guidetolerance="10.0"
     gridtolerance="10.0"
     objecttolerance="10.0"
     borderopacity="1.0"
     bordercolor="#666666"
     pagecolor="#ffffff"
     id="base"
     showgrid="false"
     inkscape:zoom="0.79858907"
     inkscape:cx="107.68993"
     inkscape:cy="236.25"
     inkscape:window-x="0"
     inkscape:window-y="0"
     inkscape:current-layer="g4586" /><g
     id="g4586"
     inkscape:groupmode="layer"
     inkscape:label="fourmuon_invariant_mass_new"
     transform="matrix(1.25,0,0,-1.25,-29.615456,425.78125)"><path
       id="path4594"
       style="opacity:1;fill:#b5e6ff;fill-opacity:1;fill-rule:nonzero;stroke:#000000;stroke-width:1.20000005;stroke-linecap:butt;stroke-linejoin:miter;marker:none;marker-start:none;marker-mid:none;marker-end:none;stroke-miterlimit:10;stroke-dasharray:4.8, 4.8;stroke-dashoffset:0;stroke-opacity:1;visibility:visible;display:inline;overflow:visible;enable-background:accumulate"
       d="M 56.75,37.75 L 183.75,37.75 L 183.75,38 L 186,38 L 186,37.75 L 195,37.75 L 195,38 L 197.25,38 L 197.25,37.75 L 226.75,37.75 L 226.75,38 L 229,38 L 229,37.75 L 231.25,37.75 L 231.25,38 L 233.5,38 L 233.5,37.75 L 235.75,37.75 L 235.75,38.25 L 238,38.25 L 238,37.75 L 240.5,37.75 L 240.5,38 L 242.75,38 L 242.75,38.25 L 247.25,38.25 L 247.25,38.75 L 249.5,38.75 L 249.5,37.75 L 251.75,37.75 L 251.75,38.25 L 254,38.25 L 254,38 L 258.5,38 L 258.5,38.75 L 260.75,38.75 L 260.75,38 L 265.25,38 L 265.25,39 L 269.75,39 L 269.75,38 L 272.25,38 L 272.25,38.75 L 276.75,38.75 L 276.75,38.25 L 279,38.25 L 279,39.25 L 281.25,39.25 L 281.25,39.5 L 288,39.5 L 288,39.75 L 294.75,39.75 L 294.75,39 L 297,39 L 297,41.5 L 299.25,41.5 L 299.25,39.25 L 301.5,39.25 L 301.5,41 L 303.75,41 L 303.75,41.25 L 306.25,41.25 L 306.25,40.25 L 308.5,40.25 L 308.5,44.25 L 310.75,44.25 L 310.75,46 L 315.25,46 L 315.25,47.5 L 317.5,47.5 L 317.5,49.75 L 319.75,49.75 L 319.75,59.5 L 322,59.5 L 322,86.5 L 324.25,86.5 L 324.25,156.25 L 326.5,156.25 L 326.5,325.75 L 328.75,325.75 L 328.75,275.75 L 331,275.75 L 331,113.5 L 333.25,113.5 L 333.25,54 L 335.5,54 L 335.5,43.75 L 338,43.75 L 338,39.75 L 340.25,39.75 L 340.25,38.75 L 342.5,38.75 L 342.5,39.5 L 344.75,39.5 L 344.75,38.75 L 347,38.75 L 347,39.5 L 349.25,39.5 L 349.25,38 L 360.5,38 L 360.5,37.75 L 376.5,37.75 L 376.5,38 L 381,38 L 381,37.75 L 392.25,37.75 L 392.25,38 L 396.75,38 L 396.75,37.75 L 510.25,37.75" /><path
       id="path4762"
       style="opacity:1;fill:#fff980;fill-opacity:1;fill-rule:nonzero;stroke:#000000;stroke-width:1.20000005;stroke-linecap:butt;stroke-linejoin:miter;marker:none;marker-start:none;marker-mid:none;marker-end:none;stroke-miterlimit:10;stroke-dasharray:none;stroke-dashoffset:0;stroke-opacity:1;visibility:visible;display:inline;overflow:visible;enable-background:accumulate"
       d="M 56.75,37.75 L 124.75,37.75 L 124.75,38 L 127,38 L 127,37.75 L 167.75,37.75 L 167.75,38 L 172.25,38 L 172.25,37.75 L 177,37.75 L 177,38 L 179.25,38 L 179.25,37.75 L 181.5,37.75 L 181.5,38.75 L 183.75,38.75 L 183.75,37.75 L 186,37.75 L 186,38 L 190.5,38 L 190.5,37.75 L 192.75,37.75 L 192.75,38.25 L 195,38.25 L 195,38.75 L 197.25,38.75 L 197.25,38 L 199.5,38 L 199.5,38.75 L 201.75,38.75 L 201.75,40 L 204,40 L 204,39.25 L 206.25,39.25 L 206.25,39.75 L 208.75,39.75 L 208.75,38.25 L 213.25,38.25 L 213.25,39 L 215.5,39 L 215.5,39.75 L 217.75,39.75 L 217.75,41 L 220,41 L 220,41.5 L 222.25,41.5 L 222.25,41 L 224.5,41 L 224.5,44.5 L 226.75,44.5 L 226.75,44.75 L 229,44.75 L 229,49.5 L 231.25,49.5 L 231.25,58.5 L 233.5,58.5 L 233.5,105 L 235.75,105 L 235.75,308.75 L 238,308.75 L 238,265.75 L 240.5,265.75 L 240.5,68 L 242.75,68 L 242.75,41.5 L 245,41.5 L 245,38.75 L 247.25,38.75 L 247.25,38.25 L 249.5,38.25 L 249.5,38.75 L 251.75,38.75 L 251.75,37.75 L 254,37.75 L 254,38 L 256.25,38 L 256.25,37.75 L 260.75,37.75 L 260.75,38 L 263,38 L 263,37.75 L 265.25,37.75 L 265.25,38 L 267.5,38 L 267.5,37.75 L 269.75,37.75 L 269.75,38 L 272.25,38 L 272.25,37.75 L 301.5,37.75 L 301.5,38 L 303.75,38 L 303.75,37.75 L 412.75,37.75 L 412.75,38 L 415,38 L 415,37.75 L 421.75,37.75 L 421.75,38 L 424,38 L 424,37.75 L 510.25,37.75" /><path
       id="path4592"
       style="fill:none;stroke:#000000;stroke-width:0.75;stroke-linecap:butt;stroke-linejoin:miter;stroke-miterlimit:10;stroke-dasharray:none;stroke-opacity:1"
       d="M 56.75,37.75 L 510.25,37.75 L 510.25,340.25 L 56.75,340.25 L 56.75,37.75 z" /><path
       id="path4596"
       style="fill:none;stroke:#000000;stroke-width:0.75;stroke-linecap:butt;stroke-linejoin:miter;stroke-miterlimit:10;stroke-dasharray:none;stroke-opacity:1"
       d="M 56.75,37.75 L 510.25,37.75" /><path
       id="path4598"
       style="fill:none;stroke:#000000;stroke-width:0.75;stroke-linecap:butt;stroke-linejoin:miter;stroke-miterlimit:10;stroke-dasharray:none;stroke-opacity:1"
       d="M 56.75,46.75 L 56.75,37.75" /><path
       id="path4600"
       style="fill:none;stroke:#000000;stroke-width:0.75;stroke-linecap:butt;stroke-linejoin:miter;stroke-miterlimit:10;stroke-dasharray:none;stroke-opacity:1"
       d="M 68,42.25 L 68,37.75" /><path
       id="path4602"
       style="fill:none;stroke:#000000;stroke-width:0.75;stroke-linecap:butt;stroke-linejoin:miter;stroke-miterlimit:10;stroke-dasharray:none;stroke-opacity:1"
       d="M 79.25,42.25 L 79.25,37.75" /><path
       id="path4604"
       style="fill:none;stroke:#000000;stroke-width:0.75;stroke-linecap:butt;stroke-linejoin:miter;stroke-miterlimit:10;stroke-dasharray:none;stroke-opacity:1"
       d="M 90.75,42.25 L 90.75,37.75" /><path
       id="path4606"
       style="fill:none;stroke:#000000;stroke-width:0.75;stroke-linecap:butt;stroke-linejoin:miter;stroke-miterlimit:10;stroke-dasharray:none;stroke-opacity:1"
       d="M 102,46.75 L 102,37.75" /><path
       id="path4608"
       style="fill:none;stroke:#000000;stroke-width:0.75;stroke-linecap:butt;stroke-linejoin:miter;stroke-miterlimit:10;stroke-dasharray:none;stroke-opacity:1"
       d="M 113.5,42.25 L 113.5,37.75" /><path
       id="path4610"
       style="fill:none;stroke:#000000;stroke-width:0.75;stroke-linecap:butt;stroke-linejoin:miter;stroke-miterlimit:10;stroke-dasharray:none;stroke-opacity:1"
       d="M 124.75,42.25 L 124.75,37.75" /><path
       id="path4612"
       style="fill:none;stroke:#000000;stroke-width:0.75;stroke-linecap:butt;stroke-linejoin:miter;stroke-miterlimit:10;stroke-dasharray:none;stroke-opacity:1"
       d="M 136,42.25 L 136,37.75" /><path
       id="path4614"
       style="fill:none;stroke:#000000;stroke-width:0.75;stroke-linecap:butt;stroke-linejoin:miter;stroke-miterlimit:10;stroke-dasharray:none;stroke-opacity:1"
       d="M 147.5,46.75 L 147.5,37.75" /><path
       id="path4616"
       style="fill:none;stroke:#000000;stroke-width:0.75;stroke-linecap:butt;stroke-linejoin:miter;stroke-miterlimit:10;stroke-dasharray:none;stroke-opacity:1"
       d="M 158.75,42.25 L 158.75,37.75" /><path
       id="path4618"
       style="fill:none;stroke:#000000;stroke-width:0.75;stroke-linecap:butt;stroke-linejoin:miter;stroke-miterlimit:10;stroke-dasharray:none;stroke-opacity:1"
       d="M 170,42.25 L 170,37.75" /><path
       id="path4620"
       style="fill:none;stroke:#000000;stroke-width:0.75;stroke-linecap:butt;stroke-linejoin:miter;stroke-miterlimit:10;stroke-dasharray:none;stroke-opacity:1"
       d="M 181.5,42.25 L 181.5,37.75" /><path
       id="path4622"
       style="fill:none;stroke:#000000;stroke-width:0.75;stroke-linecap:butt;stroke-linejoin:miter;stroke-miterlimit:10;stroke-dasharray:none;stroke-opacity:1"
       d="M 192.75,46.75 L 192.75,37.75" /><path
       id="path4624"
       style="fill:none;stroke:#000000;stroke-width:0.75;stroke-linecap:butt;stroke-linejoin:miter;stroke-miterlimit:10;stroke-dasharray:none;stroke-opacity:1"
       d="M 204,42.25 L 204,37.75" /><path
       id="path4626"
       style="fill:none;stroke:#000000;stroke-width:0.75;stroke-linecap:butt;stroke-linejoin:miter;stroke-miterlimit:10;stroke-dasharray:none;stroke-opacity:1"
       d="M 215.5,42.25 L 215.5,37.75" /><path
       id="path4628"
       style="fill:none;stroke:#000000;stroke-width:0.75;stroke-linecap:butt;stroke-linejoin:miter;stroke-miterlimit:10;stroke-dasharray:none;stroke-opacity:1"
       d="M 226.75,42.25 L 226.75,37.75" /><path
       id="path4630"
       style="fill:none;stroke:#000000;stroke-width:0.75;stroke-linecap:butt;stroke-linejoin:miter;stroke-miterlimit:10;stroke-dasharray:none;stroke-opacity:1"
       d="M 238,46.75 L 238,37.75" /><path
       id="path4632"
       style="fill:none;stroke:#000000;stroke-width:0.75;stroke-linecap:butt;stroke-linejoin:miter;stroke-miterlimit:10;stroke-dasharray:none;stroke-opacity:1"
       d="M 249.5,42.25 L 249.5,37.75" /><path
       id="path4634"
       style="fill:none;stroke:#000000;stroke-width:0.75;stroke-linecap:butt;stroke-linejoin:miter;stroke-miterlimit:10;stroke-dasharray:none;stroke-opacity:1"
       d="M 260.75,42.25 L 260.75,37.75" /><path
       id="path4636"
       style="fill:none;stroke:#000000;stroke-width:0.75;stroke-linecap:butt;stroke-linejoin:miter;stroke-miterlimit:10;stroke-dasharray:none;stroke-opacity:1"
       d="M 272.25,42.25 L 272.25,37.75" /><path
       id="path4638"
       style="fill:none;stroke:#000000;stroke-width:0.75;stroke-linecap:butt;stroke-linejoin:miter;stroke-miterlimit:10;stroke-dasharray:none;stroke-opacity:1"
       d="M 283.5,46.75 L 283.5,37.75" /><path
       id="path4640"
       style="fill:none;stroke:#000000;stroke-width:0.75;stroke-linecap:butt;stroke-linejoin:miter;stroke-miterlimit:10;stroke-dasharray:none;stroke-opacity:1"
       d="M 294.75,42.25 L 294.75,37.75" /><path
       id="path4642"
       style="fill:none;stroke:#000000;stroke-width:0.75;stroke-linecap:butt;stroke-linejoin:miter;stroke-miterlimit:10;stroke-dasharray:none;stroke-opacity:1"
       d="M 306.25,42.25 L 306.25,37.75" /><path
       id="path4644"
       style="fill:none;stroke:#000000;stroke-width:0.75;stroke-linecap:butt;stroke-linejoin:miter;stroke-miterlimit:10;stroke-dasharray:none;stroke-opacity:1"
       d="M 317.5,42.25 L 317.5,37.75" /><path
       id="path4646"
       style="fill:none;stroke:#000000;stroke-width:0.75;stroke-linecap:butt;stroke-linejoin:miter;stroke-miterlimit:10;stroke-dasharray:none;stroke-opacity:1"
       d="M 328.75,46.75 L 328.75,37.75" /><path
       id="path4648"
       style="fill:none;stroke:#000000;stroke-width:0.75;stroke-linecap:butt;stroke-linejoin:miter;stroke-miterlimit:10;stroke-dasharray:none;stroke-opacity:1"
       d="M 340.25,42.25 L 340.25,37.75" /><path
       id="path4650"
       style="fill:none;stroke:#000000;stroke-width:0.75;stroke-linecap:butt;stroke-linejoin:miter;stroke-miterlimit:10;stroke-dasharray:none;stroke-opacity:1"
       d="M 351.5,42.25 L 351.5,37.75" /><path
       id="path4652"
       style="fill:none;stroke:#000000;stroke-width:0.75;stroke-linecap:butt;stroke-linejoin:miter;stroke-miterlimit:10;stroke-dasharray:none;stroke-opacity:1"
       d="M 362.75,42.25 L 362.75,37.75" /><path
       id="path4654"
       style="fill:none;stroke:#000000;stroke-width:0.75;stroke-linecap:butt;stroke-linejoin:miter;stroke-miterlimit:10;stroke-dasharray:none;stroke-opacity:1"
       d="M 374.25,46.75 L 374.25,37.75" /><path
       id="path4656"
       style="fill:none;stroke:#000000;stroke-width:0.75;stroke-linecap:butt;stroke-linejoin:miter;stroke-miterlimit:10;stroke-dasharray:none;stroke-opacity:1"
       d="M 385.5,42.25 L 385.5,37.75" /><path
       id="path4658"
       style="fill:none;stroke:#000000;stroke-width:0.75;stroke-linecap:butt;stroke-linejoin:miter;stroke-miterlimit:10;stroke-dasharray:none;stroke-opacity:1"
       d="M 396.75,42.25 L 396.75,37.75" /><path
       id="path4660"
       style="fill:none;stroke:#000000;stroke-width:0.75;stroke-linecap:butt;stroke-linejoin:miter;stroke-miterlimit:10;stroke-dasharray:none;stroke-opacity:1"
       d="M 408.25,42.25 L 408.25,37.75" /><path
       id="path4662"
       style="fill:none;stroke:#000000;stroke-width:0.75;stroke-linecap:butt;stroke-linejoin:miter;stroke-miterlimit:10;stroke-dasharray:none;stroke-opacity:1"
       d="M 419.5,46.75 L 419.5,37.75" /><path
       id="path4664"
       style="fill:none;stroke:#000000;stroke-width:0.75;stroke-linecap:butt;stroke-linejoin:miter;stroke-miterlimit:10;stroke-dasharray:none;stroke-opacity:1"
       d="M 430.75,42.25 L 430.75,37.75" /><path
       id="path4666"
       style="fill:none;stroke:#000000;stroke-width:0.75;stroke-linecap:butt;stroke-linejoin:miter;stroke-miterlimit:10;stroke-dasharray:none;stroke-opacity:1"
       d="M 442.25,42.25 L 442.25,37.75" /><path
       id="path4668"
       style="fill:none;stroke:#000000;stroke-width:0.75;stroke-linecap:butt;stroke-linejoin:miter;stroke-miterlimit:10;stroke-dasharray:none;stroke-opacity:1"
       d="M 453.5,42.25 L 453.5,37.75" /><path
       id="path4670"
       style="fill:none;stroke:#000000;stroke-width:0.75;stroke-linecap:butt;stroke-linejoin:miter;stroke-miterlimit:10;stroke-dasharray:none;stroke-opacity:1"
       d="M 465,46.75 L 465,37.75" /><path
       id="path4672"
       style="fill:none;stroke:#000000;stroke-width:0.75;stroke-linecap:butt;stroke-linejoin:miter;stroke-miterlimit:10;stroke-dasharray:none;stroke-opacity:1"
       d="M 476.25,42.25 L 476.25,37.75" /><path
       id="path4674"
       style="fill:none;stroke:#000000;stroke-width:0.75;stroke-linecap:butt;stroke-linejoin:miter;stroke-miterlimit:10;stroke-dasharray:none;stroke-opacity:1"
       d="M 487.5,42.25 L 487.5,37.75" /><path
       id="path4676"
       style="fill:none;stroke:#000000;stroke-width:0.75;stroke-linecap:butt;stroke-linejoin:miter;stroke-miterlimit:10;stroke-dasharray:none;stroke-opacity:1"
       d="M 499,42.25 L 499,37.75" /><path
       id="path4678"
       style="fill:none;stroke:#000000;stroke-width:0.75;stroke-linecap:butt;stroke-linejoin:miter;stroke-miterlimit:10;stroke-dasharray:none;stroke-opacity:1"
       d="M 510.25,46.75 L 510.25,37.75" /><g
       id="g4680"><text
         id="text4682"
         transform="matrix(1,0,0,-1,53,24)"><tspan
           id="tspan4684"
           sodipodi:role="line"
           y="0"
           x="0 41.500065 49.20528 86.750183 94.455399 132.25031 139.95552 177.50043 185.20564 219.2505 226.95572 234.66093 264.50061 272.20584 279.91104 309.75073 317.45596 325.16116 355.25085 362.95609 370.66129 400.50098 408.20621 415.91141 446.00113 453.70633 461.41153"
           style="font-size:13.85830021px;font-variant:normal;font-weight:bold;writing-mode:lr-tb;fill:#000000;fill-opacity:1;fill-rule:nonzero;stroke:none;font-family:Helvetica;-inkscape-font-specification:Helvetica-Bold">020406080100120140160180200</tspan></text>
</g><path
       id="path4686"
       style="fill:none;stroke:#000000;stroke-width:0.75;stroke-linecap:butt;stroke-linejoin:miter;stroke-miterlimit:10;stroke-dasharray:none;stroke-opacity:1"
       d="M 56.75,37.75 L 56.75,340.25" /><path
       id="path4688"
       style="fill:none;stroke:#000000;stroke-width:0.75;stroke-linecap:butt;stroke-linejoin:miter;stroke-miterlimit:10;stroke-dasharray:none;stroke-opacity:1"
       d="M 70.25,37.75 L 56.75,37.75" /><path
       id="path4690"
       style="fill:none;stroke:#000000;stroke-width:0.75;stroke-linecap:butt;stroke-linejoin:miter;stroke-miterlimit:10;stroke-dasharray:none;stroke-opacity:1"
       d="M 63.5,52 L 56.75,52" /><path
       id="path4692"
       style="fill:none;stroke:#000000;stroke-width:0.75;stroke-linecap:butt;stroke-linejoin:miter;stroke-miterlimit:10;stroke-dasharray:none;stroke-opacity:1"
       d="M 63.5,66 L 56.75,66" /><path
       id="path4694"
       style="fill:none;stroke:#000000;stroke-width:0.75;stroke-linecap:butt;stroke-linejoin:miter;stroke-miterlimit:10;stroke-dasharray:none;stroke-opacity:1"
       d="M 63.5,80.25 L 56.75,80.25" /><path
       id="path4696"
       style="fill:none;stroke:#000000;stroke-width:0.75;stroke-linecap:butt;stroke-linejoin:miter;stroke-miterlimit:10;stroke-dasharray:none;stroke-opacity:1"
       d="M 70.25,94.25 L 56.75,94.25" /><path
       id="path4698"
       style="fill:none;stroke:#000000;stroke-width:0.75;stroke-linecap:butt;stroke-linejoin:miter;stroke-miterlimit:10;stroke-dasharray:none;stroke-opacity:1"
       d="M 63.5,108.5 L 56.75,108.5" /><path
       id="path4700"
       style="fill:none;stroke:#000000;stroke-width:0.75;stroke-linecap:butt;stroke-linejoin:miter;stroke-miterlimit:10;stroke-dasharray:none;stroke-opacity:1"
       d="M 63.5,122.75 L 56.75,122.75" /><path
       id="path4702"
       style="fill:none;stroke:#000000;stroke-width:0.75;stroke-linecap:butt;stroke-linejoin:miter;stroke-miterlimit:10;stroke-dasharray:none;stroke-opacity:1"
       d="M 63.5,136.75 L 56.75,136.75" /><path
       id="path4704"
       style="fill:none;stroke:#000000;stroke-width:0.75;stroke-linecap:butt;stroke-linejoin:miter;stroke-miterlimit:10;stroke-dasharray:none;stroke-opacity:1"
       d="M 70.25,151 L 56.75,151" /><path
       id="path4706"
       style="fill:none;stroke:#000000;stroke-width:0.75;stroke-linecap:butt;stroke-linejoin:miter;stroke-miterlimit:10;stroke-dasharray:none;stroke-opacity:1"
       d="M 63.5,165 L 56.75,165" /><path
       id="path4708"
       style="fill:none;stroke:#000000;stroke-width:0.75;stroke-linecap:butt;stroke-linejoin:miter;stroke-miterlimit:10;stroke-dasharray:none;stroke-opacity:1"
       d="M 63.5,179.25 L 56.75,179.25" /><path
       id="path4710"
       style="fill:none;stroke:#000000;stroke-width:0.75;stroke-linecap:butt;stroke-linejoin:miter;stroke-miterlimit:10;stroke-dasharray:none;stroke-opacity:1"
       d="M 63.5,193.5 L 56.75,193.5" /><path
       id="path4712"
       style="fill:none;stroke:#000000;stroke-width:0.75;stroke-linecap:butt;stroke-linejoin:miter;stroke-miterlimit:10;stroke-dasharray:none;stroke-opacity:1"
       d="M 70.25,207.5 L 56.75,207.5" /><path
       id="path4714"
       style="fill:none;stroke:#000000;stroke-width:0.75;stroke-linecap:butt;stroke-linejoin:miter;stroke-miterlimit:10;stroke-dasharray:none;stroke-opacity:1"
       d="M 63.5,221.75 L 56.75,221.75" /><path
       id="path4716"
       style="fill:none;stroke:#000000;stroke-width:0.75;stroke-linecap:butt;stroke-linejoin:miter;stroke-miterlimit:10;stroke-dasharray:none;stroke-opacity:1"
       d="M 63.5,235.75 L 56.75,235.75" /><path
       id="path4718"
       style="fill:none;stroke:#000000;stroke-width:0.75;stroke-linecap:butt;stroke-linejoin:miter;stroke-miterlimit:10;stroke-dasharray:none;stroke-opacity:1"
       d="M 63.5,250 L 56.75,250" /><path
       id="path4720"
       style="fill:none;stroke:#000000;stroke-width:0.75;stroke-linecap:butt;stroke-linejoin:miter;stroke-miterlimit:10;stroke-dasharray:none;stroke-opacity:1"
       d="M 70.25,264 L 56.75,264" /><path
       id="path4722"
       style="fill:none;stroke:#000000;stroke-width:0.75;stroke-linecap:butt;stroke-linejoin:miter;stroke-miterlimit:10;stroke-dasharray:none;stroke-opacity:1"
       d="M 63.5,278.25 L 56.75,278.25" /><path
       id="path4724"
       style="fill:none;stroke:#000000;stroke-width:0.75;stroke-linecap:butt;stroke-linejoin:miter;stroke-miterlimit:10;stroke-dasharray:none;stroke-opacity:1"
       d="M 63.5,292.5 L 56.75,292.5" /><path
       id="path4726"
       style="fill:none;stroke:#000000;stroke-width:0.75;stroke-linecap:butt;stroke-linejoin:miter;stroke-miterlimit:10;stroke-dasharray:none;stroke-opacity:1"
       d="M 63.5,306.5 L 56.75,306.5" /><path
       id="path4728"
       style="fill:none;stroke:#000000;stroke-width:0.75;stroke-linecap:butt;stroke-linejoin:miter;stroke-miterlimit:10;stroke-dasharray:none;stroke-opacity:1"
       d="M 70.25,320.75 L 56.75,320.75" /><path
       id="path4730"
       style="fill:none;stroke:#000000;stroke-width:0.75;stroke-linecap:butt;stroke-linejoin:miter;stroke-miterlimit:10;stroke-dasharray:none;stroke-opacity:1"
       d="M 70.25,320.75 L 56.75,320.75" /><path
       id="path4732"
       style="fill:none;stroke:#000000;stroke-width:0.75;stroke-linecap:butt;stroke-linejoin:miter;stroke-miterlimit:10;stroke-dasharray:none;stroke-opacity:1"
       d="M 63.5,334.75 L 56.75,334.75" /><g
       id="g4734"><text
         id="text4736"
         transform="matrix(1,0,0,-1,46,31.5)"><tspan
           id="tspan4738"
           y="0"
           x="0"
           style="font-size:13.85830021px;font-variant:normal;font-weight:bold;writing-mode:lr-tb;fill:#000000;fill-opacity:1;fill-rule:nonzero;stroke:none;font-family:Helvetica;-inkscape-font-specification:Helvetica-Bold">0</tspan><tspan
           id="tspan4740"
           sodipodi:role="line"
           y="-56.75"
           x="-15.25 -7.544785 0.1604296"
           style="font-size:13.85830021px;font-variant:normal;font-weight:bold;writing-mode:lr-tb;fill:#000000;fill-opacity:1;fill-rule:nonzero;stroke:none;font-family:Helvetica;-inkscape-font-specification:Helvetica-Bold">200</tspan><tspan
           id="tspan4742"
           sodipodi:role="line"
           y="-113.5"
           x="-15.25 -7.544785 0.1604296"
           style="font-size:13.85830021px;font-variant:normal;font-weight:bold;writing-mode:lr-tb;fill:#000000;fill-opacity:1;fill-rule:nonzero;stroke:none;font-family:Helvetica;-inkscape-font-specification:Helvetica-Bold">400</tspan><tspan
           id="tspan4744"
           sodipodi:role="line"
           y="-170"
           x="-15.25 -7.544785 0.1604296"
           style="font-size:13.85830021px;font-variant:normal;font-weight:bold;writing-mode:lr-tb;fill:#000000;fill-opacity:1;fill-rule:nonzero;stroke:none;font-family:Helvetica;-inkscape-font-specification:Helvetica-Bold">600</tspan><tspan
           id="tspan4746"
           sodipodi:role="line"
           y="-226.75"
           x="-15.25 -7.544785 0.1604296"
           style="font-size:13.85830021px;font-variant:normal;font-weight:bold;writing-mode:lr-tb;fill:#000000;fill-opacity:1;fill-rule:nonzero;stroke:none;font-family:Helvetica;-inkscape-font-specification:Helvetica-Bold">800</tspan><tspan
           id="tspan4748"
           sodipodi:role="line"
           y="-283.5"
           x="-23.25 -15.544785 -7.8395705 -0.1343556"
           style="font-size:13.85830021px;font-variant:normal;font-weight:bold;writing-mode:lr-tb;fill:#000000;fill-opacity:1;fill-rule:nonzero;stroke:none;font-family:Helvetica;-inkscape-font-specification:Helvetica-Bold">1000</tspan></text>
</g><g
       transform="matrix(1.0686121,0,0,1.0686121,130.48819,337.98855)"
       id="g3372"><text
         id="text3374"
         transform="scale(1,-1)"
         x="274"
         y="22.5"><tspan
           id="tspan3376"
           sodipodi:role="line"
           style="font-size:13.85830021px;font-variant:normal;font-weight:bold;writing-mode:lr-tb;fill:#000000;fill-opacity:1;fill-rule:nonzero;stroke:none;font-family:Helvetica;-inkscape-font-specification:Helvetica-Bold"
           x="274"
           y="22.5">  (GeV/c  )</tspan></text>
<text
         id="text3378"
         transform="scale(1,-1)"
         x="269"
         y="25.75"><tspan
           id="tspan3380"
           y="25.75"
           x="269"
           style="font-size:9.44882011px;font-variant:normal;font-weight:bold;writing-mode:lr-tb;fill:#000000;fill-opacity:1;fill-rule:nonzero;stroke:none;font-family:Helvetica;-inkscape-font-specification:Helvetica-Bold">h</tspan></text>
<text
         id="text3382"
         transform="scale(1,-1)"
         x="257"
         y="22.5"><tspan
           id="tspan3384"
           y="22.5"
           x="257"
           style="font-size:13.85830021px;font-variant:normal;font-weight:bold;writing-mode:lr-tb;fill:#000000;fill-opacity:1;fill-rule:nonzero;stroke:none;font-family:Helvetica;-inkscape-font-specification:Helvetica-Bold">m</tspan></text>
<text
         y="28.583549"
         x="274.74237"
         transform="scale(1,-1)"
         id="text3386"
         style="font-size:7.65490532px"><tspan
           style="font-size:6.02748537px;font-variant:normal;font-weight:bold;writing-mode:lr-tb;fill:#000000;fill-opacity:1;fill-rule:nonzero;stroke:none;font-family:Helvetica;-inkscape-font-specification:Helvetica-Bold"
           x="274.74237"
           y="28.583549"
           id="tspan3388">1</tspan></text>
<text
         style="font-size:11.3561573px"
         id="text3390"
         transform="scale(1,-1)"
         x="327.32675"
         y="17.313673"><tspan
           id="tspan3392"
           y="17.313673"
           x="327.32675"
           style="font-size:8.94185829px;font-variant:normal;font-weight:bold;writing-mode:lr-tb;fill:#000000;fill-opacity:1;fill-rule:nonzero;stroke:none;font-family:Helvetica;-inkscape-font-specification:Helvetica-Bold">2</tspan></text>
</g><rect
       style="opacity:1;fill:#b5e6ff;fill-opacity:1;fill-rule:nonzero;stroke:#000000;stroke-width:1.20000005;stroke-linecap:butt;stroke-linejoin:miter;marker:none;marker-start:none;marker-mid:none;marker-end:none;stroke-miterlimit:10;stroke-dasharray:4.8, 4.8;stroke-dashoffset:0;stroke-opacity:1;visibility:visible;display:inline;overflow:visible;enable-background:accumulate"
       id="rect5699"
       width="33.058304"
       height="20.035336"
       x="406.72327"
       y="-264.29965"
       transform="scale(1,-1)" /><rect
       transform="scale(1,-1)"
       y="-296.29965"
       x="406.72327"
       height="20.035336"
       width="33.058304"
       id="rect5701"
       style="opacity:1;fill:#fff980;fill-opacity:1;fill-rule:nonzero;stroke:#000000;stroke-width:1.20000005;stroke-linecap:butt;stroke-linejoin:miter;marker:none;marker-start:none;marker-mid:none;marker-end:none;stroke-miterlimit:10;stroke-dasharray:none;stroke-dashoffset:0;stroke-opacity:1;visibility:visible;display:inline;overflow:visible;enable-background:accumulate" /><g
       id="g5703"
       transform="translate(-50.669507,-38.765711)"><text
         transform="matrix(1,0,0,-1,504.5,287.75)"
         id="text5705"><tspan
           style="font-size:13.85830021px;font-variant:normal;font-weight:bold;writing-mode:lr-tb;fill:#000000;fill-opacity:1;fill-rule:nonzero;stroke:none;font-family:Helvetica;-inkscape-font-specification:Helvetica-Bold"
           sodipodi:role="line"
           id="tspan5707"
           x="0"
           y="0">120</tspan></text>
</g><g
       transform="translate(-50.669507,-6.7657108)"
       id="g5709"><text
         id="text5711"
         transform="matrix(1,0,0,-1,504.5,287.75)"><tspan
           y="0"
           x="0"
           id="tspan5713"
           sodipodi:role="line"
           style="font-size:13.85830021px;font-variant:normal;font-weight:bold;writing-mode:lr-tb;fill:#000000;fill-opacity:1;fill-rule:nonzero;stroke:none;font-family:Helvetica;-inkscape-font-specification:Helvetica-Bold">80</tspan></text>
</g><g
       id="g5958"
       transform="translate(23.040636,73.128975)"><text
         style="font-size:12.82334518px"
         y="71.982048"
         x="252.36772"
         transform="scale(1,-1)"
         id="text5737"><tspan
           y="71.982048"
           x="252.36772"
           style="font-size:14.80914688px;font-variant:normal;font-weight:bold;writing-mode:lr-tb;fill:#000000;fill-opacity:1;fill-rule:nonzero;stroke:none;font-family:Helvetica;-inkscape-font-specification:Helvetica-Bold"
           sodipodi:role="line"
           id="tspan5739">  (GeV/c  )</tspan></text>
<text
         style="font-size:12.82334518px"
         y="75.45504"
         x="232.99994"
         transform="scale(1,-1)"
         id="text5741"><tspan
           style="font-size:10.09712315px;font-variant:normal;font-weight:bold;writing-mode:lr-tb;fill:#000000;fill-opacity:1;fill-rule:nonzero;stroke:none;font-family:Helvetica;-inkscape-font-specification:Helvetica-Bold"
           x="232.99994"
           y="75.45504"
           id="tspan5743">1234</tspan></text>
<text
         style="font-size:12.82334518px"
         y="71.982048"
         x="219.42529"
         transform="scale(1,-1)"
         id="text5745"><tspan
           style="font-size:14.80914688px;font-variant:normal;font-weight:bold;writing-mode:lr-tb;fill:#000000;fill-opacity:1;fill-rule:nonzero;stroke:none;font-family:Helvetica;-inkscape-font-specification:Helvetica-Bold"
           x="219.42529"
           y="71.982048"
           id="tspan5747">m</tspan></text>
<text
         y="66.43988"
         x="309.35336"
         transform="scale(1,-1)"
         id="text5753"
         style="font-size:12.13532734px"><tspan
           style="font-size:9.55537796px;font-variant:normal;font-weight:bold;writing-mode:lr-tb;fill:#000000;fill-opacity:1;fill-rule:nonzero;stroke:none;font-family:Helvetica;-inkscape-font-specification:Helvetica-Bold"
           x="309.35336"
           y="66.43988"
           id="tspan5755">2</tspan></text>
</g><text
       xml:space="preserve"
       style="font-size:21.85494614px;font-style:normal;font-variant:normal;font-weight:normal;font-stretch:normal;text-align:start;line-height:125%;writing-mode:lr-tb;text-anchor:start;fill:#000000;fill-opacity:1;stroke:none;stroke-width:1px;stroke-linecap:butt;stroke-linejoin:miter;stroke-opacity:1;font-family:Bitstream Vera Sans;-inkscape-font-specification:Bitstream Vera Sans"
       x="76.344368"
       y="-306.97821"
       id="text48807"
       sodipodi:linespacing="125%"
       transform="scale(1,-1)"><tspan
         sodipodi:role="line"
         id="tspan48809"
         x="76.344368"
         y="-306.97821">(b)</tspan></text>
</g></svg>